<svg width="554" height="118" viewBox="0 0 554 118" fill="none" xmlns="http://www.w3.org/2000/svg">
<g filter="url(#filter0_d_159_732)">
<path d="M33.8 32.888V40.064C33.8 40.532 33.748 40.844 33.696 41.104C33.644 41.364 33.54 41.468 33.332 41.468C33.124 41.468 32.916 41.364 32.76 41.312L31.668 41C29.172 39.96 26.468 39.388 23.504 39.336L21.944 39.284C19.656 39.284 16.64 39.544 12.844 40.064C9.724 40.48 6.552 40.844 3.38 41.156H3.224C2.808 41.156 2.6 40.948 2.6 40.532C2.6 40.272 2.704 40.064 2.86 39.804C4.264 37.568 4.992 34.968 4.992 31.9C4.992 30.964 4.94 30.028 4.836 29.092C4.472 26.492 4.004 23.424 3.328 19.94C2.86 17.288 2.6 14.948 2.6 12.972C2.6 11.1 3.12 9.436 4.108 7.304C4.784 5.952 5.928 5.12 7.488 4.86C8.476 4.652 9.672 4.548 11.18 4.548C14.404 4.548 17.368 4.86 20.124 5.484C21.736 5.848 23.192 6.108 24.388 6.16C24.752 6.212 25.272 6.212 25.948 6.212C26.884 6.212 27.716 6.16 28.392 6.004C29.068 5.9 29.692 5.692 30.264 5.38C30.472 5.276 30.784 5.068 31.2 4.808C31.252 4.756 31.564 4.392 31.772 4.392C31.824 4.392 31.876 4.392 31.928 4.444C31.98 4.496 32.136 5.068 32.188 5.224C32.396 5.848 32.656 6.94 32.812 7.356L33.02 8.396C33.28 9.592 33.488 10.476 33.54 11.048C33.54 11.256 33.748 12.244 33.748 12.92C33.748 13.544 33.644 13.96 33.384 14.116C33.228 14.272 33.072 14.376 32.864 14.48C32.396 14.74 32.032 14.948 31.772 15C30.888 15.364 30.108 15.416 28.704 15.416C25.428 15.416 22.412 14.636 19.708 13.128C18.772 12.66 17.628 11.932 16.276 10.944L14.976 10.06C13.832 9.28 13.208 8.864 13.052 8.76C11.752 7.876 10.712 7.2 10.036 6.784C9.464 6.42 8.892 6.264 8.32 6.264C7.072 6.264 6.032 7.2 5.772 8.708C5.72 9.124 5.668 9.488 5.668 9.748C5.668 10.164 5.72 10.58 5.824 10.944C6.292 12.504 6.76 13.7 7.28 14.48L8.84 16.768C10.296 18.796 11.336 20.356 11.908 21.448L12.324 22.28C12.532 22.488 12.532 22.904 12.896 22.904C13.26 22.904 13.78 22.696 13.988 22.644L16.484 21.708C17.368 21.344 18.044 21.084 18.512 20.876L21.424 19.732C21.476 19.732 23.4 18.9 23.764 18.9C23.972 18.9 24.128 18.952 24.18 19.108C24.232 19.16 24.232 19.316 24.232 19.576C24.232 20.2 23.92 22.644 23.868 23.008C23.66 24.412 23.504 25.504 23.348 26.336C23.296 26.544 23.296 27.22 22.932 27.22C22.568 27.22 22.152 26.544 21.892 26.336C21.424 25.972 20.904 25.66 20.436 25.4C19.448 24.88 18.356 24.568 17.16 24.464C16.692 24.464 16.068 24.412 15.808 24.412C15.548 24.412 15.34 24.412 15.132 24.464C14.56 24.464 13.624 24.672 13.572 25.036V25.14C13.572 25.296 13.624 25.556 13.728 25.972L14.248 28.052C14.612 29.508 14.82 30.6 14.924 31.328C15.028 32.004 15.08 33.096 15.08 34.552V37.984C15.34 37.984 15.6 38.036 15.756 38.036C15.912 38.036 16.068 38.036 16.224 37.984L17.68 37.724C20.592 37.256 22.776 36.84 24.284 36.476C26.884 35.904 29.172 34.812 31.2 33.252C31.46 33.044 32.188 32.42 32.812 32.212C32.968 32.16 33.124 32.16 33.28 32.16C33.436 32.16 33.592 32.212 33.644 32.264C33.748 32.368 33.8 32.576 33.8 32.888ZM69.0142 30.86C69.6902 31.224 70.0022 31.692 70.0022 32.264C70.0022 33.044 69.8982 33.616 69.8462 34.032C69.6902 35.176 69.4302 36.632 69.1182 38.452L68.7542 40.584C68.7542 40.74 68.6502 41.468 68.4942 41.52L68.4422 41.572H68.3902C68.3382 41.572 68.2342 41.364 68.0782 41.312C67.6102 40.948 67.3502 40.74 67.2462 40.688C66.8822 40.376 66.3102 40.116 65.6342 39.856C64.8542 39.596 63.9182 39.44 62.8262 39.44C60.9022 39.44 59.0822 39.596 57.3662 39.96C53.9342 40.74 50.7622 41.104 47.8502 41.104C47.3822 41.104 46.9662 41.104 46.4982 41.052C46.0822 41.052 45.3542 41.052 44.4702 40.896C42.4422 40.636 41.0382 39.596 40.3102 37.828C39.4262 35.904 39.0102 34.188 39.0102 32.68C39.0102 30.496 39.1662 28.624 39.5302 27.064C39.8942 25.088 40.2062 23.476 40.4142 22.176L41.1422 17.132C41.3502 15.624 41.4542 14.48 41.4542 13.7C41.4542 12.504 41.2982 11.308 40.9862 10.112C40.6222 8.916 39.8422 7.148 39.6342 6.524C39.4782 6.316 39.2182 5.796 39.1662 5.432V5.38C39.1662 4.964 39.5302 4.756 40.2582 4.756C42.1822 4.704 45.0422 4.704 48.8902 4.704C50.2942 4.704 50.6582 4.964 50.9182 6.264C51.3342 8.24 51.5422 9.956 51.5422 11.464C51.5422 13.024 51.3862 14.532 51.0222 15.936C50.1902 19.732 49.2022 22.748 47.5382 25.504C46.9142 26.544 45.8742 28.052 44.4182 29.976C43.6382 31.016 42.9622 32.264 42.4422 33.772C42.2342 34.292 42.1302 34.812 42.1302 35.384C42.1302 36.164 42.3382 36.944 42.7542 37.724C43.3262 38.712 44.0542 39.284 44.8862 39.284C45.3542 39.284 45.8222 39.128 46.3422 38.816C47.2782 38.348 48.4222 37.62 49.7742 36.632L50.7102 36.008C51.8542 35.228 52.4782 34.812 52.6342 34.708C53.9342 33.824 54.9742 33.148 55.6502 32.732C58.3022 31.068 61.5262 30.08 64.5942 30.08C64.9582 30.08 65.5302 30.132 66.3102 30.184C67.2982 30.288 68.1822 30.496 69.0142 30.86ZM122.995 26.544V35.54C122.995 36.424 122.631 37.152 121.851 37.724C119.875 39.18 117.899 40.116 115.923 40.48C113.687 40.844 111.555 41.052 109.475 41.052C107.447 41.052 105.315 40.844 103.027 40.48C100.167 40.012 97.619 38.608 95.383 36.268C93.303 34.084 92.003 31.588 91.431 28.728C91.015 26.492 90.807 24.464 90.807 22.748C90.807 20.876 91.015 19.056 91.483 17.288C92.263 14.324 93.563 11.932 95.279 10.008C97.151 7.928 99.491 6.732 103.079 5.484C104.639 4.912 106.303 4.652 108.019 4.652C109.267 4.652 110.879 4.86 112.855 5.224C113.115 5.276 113.687 5.38 114.623 5.64C115.403 5.848 116.183 5.952 116.963 5.952C118.055 5.952 119.043 5.796 119.979 5.432C120.551 5.276 121.019 5.016 121.591 4.86C121.903 4.808 122.163 4.756 122.319 4.756H122.475C122.631 4.86 122.683 5.016 122.683 5.276V5.432C122.683 7.044 122.683 8.292 122.631 9.072C122.631 10.32 122.631 11.256 122.579 11.932V13.336C122.579 13.544 122.631 14.116 122.267 14.324L121.851 14.532C121.487 14.688 121.227 14.74 121.123 14.792C120.291 15.052 119.147 15.26 117.743 15.52C117.171 15.624 116.547 15.676 115.975 15.676C114.415 15.676 112.907 15.26 111.399 14.48C109.787 13.596 108.071 13.024 106.251 12.764C105.575 12.66 104.899 12.608 104.327 12.608C100.583 12.608 97.411 14.324 94.811 17.808C93.927 19.004 93.459 20.512 93.459 22.332C93.459 24.62 94.291 26.856 95.799 28.26C98.295 30.652 101.155 31.848 104.379 31.848C110.151 31.848 115.611 30.236 120.655 26.96L121.643 26.336C121.955 26.024 122.267 25.868 122.527 25.868C122.839 25.868 122.995 26.076 122.995 26.544ZM158.186 30.86C158.862 31.224 159.174 31.692 159.174 32.264C159.174 33.044 159.07 33.616 159.018 34.032C158.862 35.176 158.602 36.632 158.29 38.452L157.926 40.584C157.926 40.74 157.822 41.468 157.666 41.52L157.614 41.572H157.562C157.51 41.572 157.406 41.364 157.25 41.312C156.782 40.948 156.522 40.74 156.418 40.688C156.054 40.376 155.482 40.116 154.806 39.856C154.026 39.596 153.09 39.44 151.998 39.44C150.074 39.44 148.254 39.596 146.538 39.96C143.106 40.74 139.934 41.104 137.022 41.104C136.554 41.104 136.138 41.104 135.67 41.052C135.254 41.052 134.526 41.052 133.642 40.896C131.614 40.636 130.21 39.596 129.482 37.828C128.598 35.904 128.182 34.188 128.182 32.68C128.182 30.496 128.338 28.624 128.702 27.064C129.066 25.088 129.378 23.476 129.586 22.176L130.314 17.132C130.522 15.624 130.626 14.48 130.626 13.7C130.626 12.504 130.47 11.308 130.158 10.112C129.794 8.916 129.014 7.148 128.806 6.524C128.65 6.316 128.39 5.796 128.338 5.432V5.38C128.338 4.964 128.702 4.756 129.43 4.756C131.354 4.704 134.214 4.704 138.062 4.704C139.466 4.704 139.83 4.964 140.09 6.264C140.506 8.24 140.714 9.956 140.714 11.464C140.714 13.024 140.558 14.532 140.194 15.936C139.362 19.732 138.374 22.748 136.71 25.504C136.086 26.544 135.046 28.052 133.59 29.976C132.81 31.016 132.134 32.264 131.614 33.772C131.406 34.292 131.302 34.812 131.302 35.384C131.302 36.164 131.51 36.944 131.926 37.724C132.498 38.712 133.226 39.284 134.058 39.284C134.526 39.284 134.994 39.128 135.514 38.816C136.45 38.348 137.594 37.62 138.946 36.632L139.882 36.008C141.026 35.228 141.65 34.812 141.806 34.708C143.106 33.824 144.146 33.148 144.822 32.732C147.474 31.068 150.698 30.08 153.766 30.08C154.13 30.08 154.702 30.132 155.482 30.184C156.47 30.288 157.354 30.496 158.186 30.86ZM197.253 6.264C197.877 8.292 198.189 10.216 198.189 11.984C198.189 13.284 198.033 14.428 197.773 15.416C197.617 16.248 197.409 16.976 197.253 17.548C196.785 19.576 196.473 20.98 196.213 21.812C195.641 23.84 195.329 26.076 195.329 28.52C195.381 30.548 195.381 33.616 195.381 37.62C195.381 38.452 195.381 39.076 195.329 39.492V39.752C195.329 40.168 195.173 40.428 194.913 40.532C194.861 40.532 194.601 40.688 194.393 40.688L183.005 40.792C182.537 40.792 182.329 40.636 182.329 40.376V40.22C182.433 39.856 182.589 39.596 182.797 39.336C183.265 38.66 183.577 38.088 183.629 37.568C183.629 37.412 183.733 37.152 183.733 36.996C183.733 36.944 183.681 36.892 183.629 36.84H183.473C183.213 36.84 183.057 36.84 183.005 36.892L181.549 37.568C179.261 38.66 177.545 39.492 176.401 39.96C175.153 40.532 173.853 40.792 172.449 40.792C171.253 40.792 170.057 40.584 168.861 40.168C167.405 39.7 166.365 38.764 165.741 37.36C164.857 35.436 164.389 33.356 164.389 31.016C164.389 27.844 164.909 24.724 165.897 21.604C166.729 18.848 167.197 16.144 167.613 12.244C167.665 11.984 167.665 11.568 167.665 10.996C167.665 10.216 167.665 9.644 167.613 9.28C167.561 8.864 167.457 7.72 167.249 7.044C167.197 6.784 166.417 5.744 166.417 5.328V5.172V5.12C166.573 4.86 167.197 4.756 168.185 4.756C171.877 4.756 174.685 4.704 176.505 4.652H176.817C177.493 4.652 177.857 4.808 178.325 5.692C179.105 7.148 179.469 8.552 179.469 9.852C179.469 11.724 178.845 13.544 177.597 15.312C176.921 16.248 176.193 17.184 175.361 18.068C174.529 18.952 174.061 19.472 173.905 19.628C172.397 21.24 170.837 23.32 169.225 25.764C167.925 27.844 167.353 30.236 167.093 33.304V33.564C167.249 36.84 168.913 38.816 171.669 38.816C172.345 38.816 173.125 38.66 174.009 38.4C175.933 37.828 177.649 36.736 179.209 35.228C181.601 32.784 183.525 29.82 184.929 26.284C186.125 23.112 186.957 20.044 187.425 17.132C187.581 16.352 187.633 15.416 187.633 14.428C187.633 13.128 187.477 11.88 187.165 10.632C186.905 9.54 186.489 8.5 185.917 7.616C185.709 7.252 184.513 5.848 184.513 5.224C184.513 4.912 184.773 4.756 185.345 4.756C187.529 4.704 190.805 4.704 195.121 4.704C196.577 4.704 196.837 4.86 197.253 6.264ZM230.533 35.54C231.313 34.656 231.729 33.616 231.729 32.524C231.729 28.728 227.933 27.324 224.657 27.324C222.525 27.324 221.121 27.272 219.093 26.388C217.533 25.868 215.609 24.36 215.609 22.592C215.609 21.708 216.025 20.824 216.909 20.044C217.169 19.784 217.533 19.472 218.001 19.212C218.469 18.952 218.781 18.744 218.989 18.588L220.185 17.756C221.173 17.132 221.849 16.612 222.317 16.248C223.461 15.208 224.033 13.96 224.033 12.556C224.033 8.448 219.821 7.356 216.389 7.356C215.817 7.356 215.349 7.356 215.089 7.408C213.945 7.512 213.789 8.656 213.789 9.592C213.789 10.84 213.737 12.66 213.685 15.104C213.633 19.004 213.581 21.864 213.581 23.788V27.012C213.581 28.312 213.633 30.288 213.685 32.94C213.685 34.24 213.685 35.176 213.737 35.8C213.737 36.632 213.737 37.256 213.789 37.672C213.789 37.984 213.789 38.244 213.841 38.4C213.841 38.92 214.413 38.972 214.777 38.972C215.141 39.024 215.349 39.024 215.505 39.024C218.833 39.024 221.329 39.076 222.993 39.128C225.749 39.232 228.297 38.036 230.533 35.54ZM228.245 20.408C232.353 20.408 237.189 21.344 239.165 25.452C239.841 26.856 240.205 28.312 240.205 29.872C240.205 30.964 240.049 31.952 239.685 32.94C238.125 37.152 232.145 40.22 227.933 40.532C225.801 40.688 222.733 40.844 218.625 41C217.897 41.052 216.753 41 215.245 40.948L208.485 40.74C208.225 40.688 207.861 40.688 207.445 40.74C206.977 40.792 206.613 40.792 206.301 40.792C205.521 40.792 204.793 40.688 204.221 40.428C204.169 40.428 204.065 40.376 204.013 40.324C203.597 40.064 203.389 39.544 203.389 38.868C203.389 38.556 203.441 38.244 203.493 37.984C203.545 37.724 203.545 37.412 203.545 37.152L203.597 32.628V23.58C203.597 19.16 203.597 15.832 203.545 13.596V8.552L203.493 6.524C203.493 5.744 203.597 5.224 203.753 4.964C203.909 4.756 204.169 4.652 204.585 4.652C205.157 4.652 206.093 4.704 207.341 4.756C208.225 4.86 209.161 4.912 210.045 4.912C211.709 4.912 214.257 4.86 217.637 4.704C220.133 4.548 222.629 4.548 225.125 4.548C229.493 4.548 235.733 5.484 235.733 11.1C235.733 15.988 231.521 18.068 227.257 18.692L221.225 19.732C220.445 19.836 219.821 19.94 219.405 20.044C218.989 20.2 218.625 20.408 218.261 20.72C218.053 20.928 217.949 21.188 217.949 21.448C217.949 21.656 218.001 21.812 218.157 21.916C218.313 22.072 218.469 22.124 218.729 22.072C219.613 21.916 220.341 21.76 220.913 21.552C223.253 20.772 225.697 20.408 228.245 20.408ZM272.467 38.972C280.995 38.868 286.871 31.432 286.871 23.216C286.871 15.676 282.035 8.136 274.391 6.576C273.715 6.42 273.143 6.368 272.779 6.368C271.895 6.368 271.479 6.784 271.427 7.616L271.323 11.568C271.271 13.388 271.167 16.092 271.115 19.68C271.115 24.672 271.167 29.664 271.271 34.656C271.271 34.864 271.271 35.124 271.219 35.436C271.167 35.748 271.167 36.112 271.167 36.58C271.167 37.568 271.323 38.296 271.687 38.66C271.895 38.92 272.155 39.024 272.467 38.972ZM291.967 11.88C294.671 14.584 296.179 19.576 296.179 23.268C296.179 29.872 291.915 35.592 285.987 38.244C281.463 40.22 277.147 41.104 272.987 40.948C270.751 40.844 267.319 40.792 262.743 40.792C262.223 40.792 261.807 40.74 261.547 40.584C261.235 40.48 261.079 40.22 261.027 39.856C260.975 39.648 260.975 39.336 260.975 38.92C261.079 33.564 261.131 28.208 261.131 22.852L261.079 6.784C261.079 6.628 261.079 6.42 261.027 6.16C260.975 5.9 260.975 5.692 260.975 5.432C260.975 5.224 261.027 4.496 261.339 4.496C261.391 4.444 261.547 4.444 261.807 4.444C262.067 4.444 262.327 4.444 262.691 4.496C263.003 4.548 263.211 4.6 263.367 4.6C263.939 4.652 264.875 4.652 266.071 4.652L268.723 4.6C269.295 4.548 270.127 4.548 271.323 4.548C273.559 4.6 275.223 4.704 276.315 4.756L278.811 4.86C283.699 5.068 288.691 8.396 291.967 11.88ZM332.597 32.888V40.064C332.597 40.532 332.545 40.844 332.493 41.104C332.441 41.364 332.337 41.468 332.129 41.468C331.921 41.468 331.713 41.364 331.557 41.312L330.465 41C327.969 39.96 325.265 39.388 322.301 39.336L320.741 39.284C318.453 39.284 315.437 39.544 311.641 40.064C308.521 40.48 305.349 40.844 302.177 41.156H302.021C301.605 41.156 301.397 40.948 301.397 40.532C301.397 40.272 301.501 40.064 301.657 39.804C303.061 37.568 303.789 34.968 303.789 31.9C303.789 30.964 303.737 30.028 303.633 29.092C303.269 26.492 302.801 23.424 302.125 19.94C301.657 17.288 301.397 14.948 301.397 12.972C301.397 11.1 301.917 9.436 302.905 7.304C303.581 5.952 304.725 5.12 306.285 4.86C307.273 4.652 308.469 4.548 309.977 4.548C313.201 4.548 316.165 4.86 318.921 5.484C320.533 5.848 321.989 6.108 323.185 6.16C323.549 6.212 324.069 6.212 324.745 6.212C325.681 6.212 326.513 6.16 327.189 6.004C327.865 5.9 328.489 5.692 329.061 5.38C329.269 5.276 329.581 5.068 329.997 4.808C330.049 4.756 330.361 4.392 330.569 4.392C330.621 4.392 330.673 4.392 330.725 4.444C330.777 4.496 330.933 5.068 330.985 5.224C331.193 5.848 331.453 6.94 331.609 7.356L331.817 8.396C332.077 9.592 332.285 10.476 332.337 11.048C332.337 11.256 332.545 12.244 332.545 12.92C332.545 13.544 332.441 13.96 332.181 14.116C332.025 14.272 331.869 14.376 331.661 14.48C331.193 14.74 330.829 14.948 330.569 15C329.685 15.364 328.905 15.416 327.501 15.416C324.225 15.416 321.209 14.636 318.505 13.128C317.569 12.66 316.425 11.932 315.073 10.944L313.773 10.06C312.629 9.28 312.005 8.864 311.849 8.76C310.549 7.876 309.509 7.2 308.833 6.784C308.261 6.42 307.689 6.264 307.117 6.264C305.869 6.264 304.829 7.2 304.569 8.708C304.517 9.124 304.465 9.488 304.465 9.748C304.465 10.164 304.517 10.58 304.621 10.944C305.089 12.504 305.557 13.7 306.077 14.48L307.637 16.768C309.093 18.796 310.133 20.356 310.705 21.448L311.121 22.28C311.329 22.488 311.329 22.904 311.693 22.904C312.057 22.904 312.577 22.696 312.785 22.644L315.281 21.708C316.165 21.344 316.841 21.084 317.309 20.876L320.221 19.732C320.273 19.732 322.197 18.9 322.561 18.9C322.769 18.9 322.925 18.952 322.977 19.108C323.029 19.16 323.029 19.316 323.029 19.576C323.029 20.2 322.717 22.644 322.665 23.008C322.457 24.412 322.301 25.504 322.145 26.336C322.093 26.544 322.093 27.22 321.729 27.22C321.365 27.22 320.949 26.544 320.689 26.336C320.221 25.972 319.701 25.66 319.233 25.4C318.245 24.88 317.153 24.568 315.957 24.464C315.489 24.464 314.865 24.412 314.605 24.412C314.345 24.412 314.137 24.412 313.929 24.464C313.357 24.464 312.421 24.672 312.369 25.036V25.14C312.369 25.296 312.421 25.556 312.525 25.972L313.045 28.052C313.409 29.508 313.617 30.6 313.721 31.328C313.825 32.004 313.877 33.096 313.877 34.552V37.984C314.137 37.984 314.397 38.036 314.553 38.036C314.709 38.036 314.865 38.036 315.021 37.984L316.477 37.724C319.389 37.256 321.573 36.84 323.081 36.476C325.681 35.904 327.969 34.812 329.997 33.252C330.257 33.044 330.985 32.42 331.609 32.212C331.765 32.16 331.921 32.16 332.077 32.16C332.233 32.16 332.389 32.212 332.441 32.264C332.545 32.368 332.597 32.576 332.597 32.888ZM367.811 30.86C368.487 31.224 368.799 31.692 368.799 32.264C368.799 33.044 368.695 33.616 368.643 34.032C368.487 35.176 368.227 36.632 367.915 38.452L367.551 40.584C367.551 40.74 367.447 41.468 367.291 41.52L367.239 41.572H367.187C367.135 41.572 367.031 41.364 366.875 41.312C366.407 40.948 366.147 40.74 366.043 40.688C365.679 40.376 365.107 40.116 364.431 39.856C363.651 39.596 362.715 39.44 361.623 39.44C359.699 39.44 357.879 39.596 356.163 39.96C352.731 40.74 349.559 41.104 346.647 41.104C346.179 41.104 345.763 41.104 345.295 41.052C344.879 41.052 344.151 41.052 343.267 40.896C341.239 40.636 339.835 39.596 339.107 37.828C338.223 35.904 337.807 34.188 337.807 32.68C337.807 30.496 337.963 28.624 338.327 27.064C338.691 25.088 339.003 23.476 339.211 22.176L339.939 17.132C340.147 15.624 340.251 14.48 340.251 13.7C340.251 12.504 340.095 11.308 339.783 10.112C339.419 8.916 338.639 7.148 338.431 6.524C338.275 6.316 338.015 5.796 337.963 5.432V5.38C337.963 4.964 338.327 4.756 339.055 4.756C340.979 4.704 343.839 4.704 347.687 4.704C349.091 4.704 349.455 4.964 349.715 6.264C350.131 8.24 350.339 9.956 350.339 11.464C350.339 13.024 350.183 14.532 349.819 15.936C348.987 19.732 347.999 22.748 346.335 25.504C345.711 26.544 344.671 28.052 343.215 29.976C342.435 31.016 341.759 32.264 341.239 33.772C341.031 34.292 340.927 34.812 340.927 35.384C340.927 36.164 341.135 36.944 341.551 37.724C342.123 38.712 342.851 39.284 343.683 39.284C344.151 39.284 344.619 39.128 345.139 38.816C346.075 38.348 347.219 37.62 348.571 36.632L349.507 36.008C350.651 35.228 351.275 34.812 351.431 34.708C352.731 33.824 353.771 33.148 354.447 32.732C357.099 31.068 360.323 30.08 363.391 30.08C363.755 30.08 364.327 30.132 365.107 30.184C366.095 30.288 366.979 30.496 367.811 30.86ZM419.452 8.604L419.556 10.32C419.556 10.788 419.764 11.62 419.764 11.984C419.764 12.816 419.088 13.024 418.204 13.024C416.072 13.024 414.512 13.024 413.42 13.076L408.584 13.128H407.128C406.452 13.128 405.984 13.128 405.62 13.18C404.112 13.232 403.072 14.324 403.072 15.728C403.072 16.04 403.124 16.352 403.228 16.664C403.696 17.964 404.424 19.16 405.516 20.252C407.284 22.124 408.844 23.84 410.196 25.452C412.016 27.792 413.316 30.288 414.096 33.044C414.304 33.876 414.408 34.708 414.408 35.54C414.408 36.268 414.304 36.996 414.096 37.672C414.044 37.932 413.888 38.244 413.68 38.66C413.524 38.92 413.472 39.232 413.264 39.596C413.004 40.012 412.744 40.792 412.068 40.792H410.404C406.868 40.844 404.32 40.896 403.332 40.896C402.344 40.896 401.564 40.896 400.992 40.844C400.94 40.844 400.68 40.896 400.628 40.896C400.576 40.896 400.472 40.844 400.42 40.792C400.316 40.688 400.264 40.584 400.264 40.428C400.264 40.064 400.628 39.44 400.68 39.284C401.46 37.568 401.928 35.436 401.98 32.94C402.032 32.42 402.032 31.64 402.032 30.652C402.032 27.896 401.72 25.296 401.148 22.852C401.096 22.644 400.992 22.28 400.94 21.708C400.784 20.928 400.68 20.356 400.576 19.992C400.42 19.108 400.316 18.38 400.316 17.704C400.316 16.716 400.472 15.676 400.732 14.636C400.784 14.532 400.888 14.064 401.044 13.232C400.576 13.18 399.848 13.18 398.86 13.18C397.612 13.18 396.52 13.232 395.532 13.388C394.7 13.492 393.556 13.596 392.152 13.752H391.996C391.528 13.752 391.164 13.544 391.008 13.128C390.54 11.828 390.176 10.476 389.916 9.072C389.864 8.5 389.604 7.304 389.604 6.524C389.656 5.432 390.176 5.12 391.424 5.068C393.14 4.964 397.352 4.808 404.112 4.652C410.872 4.496 415.136 4.392 416.904 4.392C417.58 4.392 417.944 4.392 418.048 4.444C418.724 4.6 418.932 5.068 419.14 6.16C419.296 6.732 419.4 7.512 419.452 8.604ZM461.504 40.116C461.972 40.532 462.284 40.844 462.284 41.052C462.284 41.104 462.284 41.104 462.232 41.156C462.076 41.364 461.4 41.572 460.256 41.78C459.112 41.936 458.176 42.04 457.396 42.092H456.72C455.108 42.092 453.548 41.884 452.092 41.416C450.48 40.948 449.596 39.44 448.088 36.736C447.828 36.268 446.788 34.344 445.956 33.096C445.488 32.472 445.072 31.9 444.604 31.432C443.72 30.392 442.68 29.768 440.964 28.728C440.704 28.572 439.456 27.896 438.676 27.22C438.312 26.908 438 26.544 437.792 26.18C437.584 25.764 437.48 25.348 437.48 24.88C437.48 23.996 437.792 23.216 438.468 22.488C438.728 22.228 439.092 21.916 439.664 21.5L441.484 20.148C442.576 19.316 443.356 18.692 443.824 18.224C445.02 17.028 445.592 15.676 445.592 14.064C445.592 13.284 445.488 12.556 445.228 11.932C444.656 10.476 443.668 9.488 442.212 8.968C440.808 8.396 439.404 8.136 437.948 8.136C437.688 8.136 437.22 8.188 436.596 8.24C435.504 8.396 435.348 9.332 435.348 9.748V39.544C435.348 40.74 435.14 41.156 434.048 41.208C430.98 41.26 428.744 41.312 427.236 41.312C425.208 41.312 424.948 41.156 424.948 39.648L425 36.008C425.052 33.356 425.104 31.432 425.104 30.184V26.492C425.104 21.5 425.104 17.756 425.052 15.26V9.54L425 7.2C425 5.484 425.208 5.12 426.092 5.12C427.08 5.12 428.068 5.172 429.108 5.276C429.784 5.328 430.772 5.432 432.072 5.432C436.076 5.38 439.092 5.172 441.016 5.12L445.488 4.964H446.476C448.556 4.964 450.272 5.172 451.624 5.536C452.612 5.796 453.288 6.056 453.756 6.316C456.044 7.512 457.292 9.8 457.292 12.348C457.292 13.128 457.188 13.804 457.032 14.428C456.408 16.82 455.212 18.484 453.392 19.42C452.404 19.94 451.26 20.356 450.012 20.72C449.44 20.876 449.024 20.928 448.816 20.98C448.192 21.136 447.048 21.344 445.332 21.656C444.656 21.812 443.512 21.916 442.94 21.968C442.68 22.02 441.38 22.072 440.756 22.54L440.496 22.748C440.444 22.8 440.444 22.904 440.444 23.06C440.444 23.32 440.496 23.476 440.652 23.58C440.808 23.684 441.016 23.736 441.38 23.736H442.784C443.044 23.736 443.512 23.684 443.668 23.684C443.824 23.684 443.98 23.684 444.136 23.736L445.592 23.892C446.216 23.944 446.632 24.152 446.996 24.204C449.804 24.88 452.092 26.076 453.86 27.688C454.848 28.572 455.628 29.56 456.148 30.548C456.668 31.588 457.344 33.096 458.124 35.124C458.54 36.372 458.904 37.308 459.268 37.88C459.736 38.712 460.672 39.492 461.504 40.116ZM477.852 35.644L477.956 38.92C477.956 39.284 477.904 39.596 477.8 39.908C477.644 40.48 477.28 40.532 476.396 40.688C475.98 40.74 475.356 40.792 474.472 40.792H472.548C472.08 40.792 471.3 40.896 470.416 40.896C468.596 40.896 467.66 40.428 467.504 39.492C467.452 39.128 467.452 38.608 467.452 37.88C467.452 37.204 467.504 36.164 467.556 34.76L467.608 33.564C467.712 31.796 467.764 30.392 467.764 29.352V28.676C467.66 26.232 467.608 23.788 467.608 21.344L467.66 16.716C467.66 15.728 467.66 14.896 467.608 14.22L467.556 9.852C467.556 6.94 467.712 5.38 467.972 5.224C468.44 4.912 469.844 4.756 472.132 4.756C474.264 4.756 476.916 4.912 477.28 5.068C477.436 5.12 477.488 5.224 477.54 5.276C477.696 5.432 477.8 6.628 477.8 8.812C477.8 10.008 477.748 11.776 477.696 14.116L477.644 17.964C477.644 21.916 477.696 27.792 477.852 35.644ZM500.98 17.236C502.436 16.092 503.736 14.324 503.736 12.4C503.736 10.268 502.28 8.76 500.408 8.032C500.044 7.928 499.68 7.772 499.316 7.72C497.496 7.46 495.884 7.304 494.428 7.356C494.168 7.356 493.596 7.46 493.388 7.564C493.232 7.668 493.18 7.824 493.128 7.98C493.076 8.188 493.024 8.448 493.024 8.76C492.972 9.228 492.92 9.956 492.92 10.944C492.92 11.256 492.92 11.672 492.972 12.14C492.972 12.608 492.972 13.18 492.92 13.856C492.868 15.676 492.816 18.38 492.816 21.968C492.816 22.54 492.972 22.8 493.232 22.8C493.492 22.8 493.804 22.644 494.272 22.28L496.976 20.252C498.796 18.952 500.096 17.912 500.98 17.236ZM510.08 5.068C513.096 5.9 515.384 7.824 515.384 11.1C515.384 17.028 509.248 20.616 504.152 21.812L501.968 22.384C498.796 23.112 493.492 24.308 493.492 28.312L493.44 36.372L493.492 38.764V39.336C493.492 40.168 493.388 40.844 492.348 40.844C492.088 40.844 491.724 40.844 491.36 40.792C490.996 40.74 490.684 40.74 490.424 40.792H488.24L483.872 40.896C483.196 40.896 483.092 39.96 483.092 39.44C483.04 38.66 483.092 37.724 483.144 36.736C483.248 34.708 483.3 32.68 483.3 30.652C483.3 29.352 483.248 27.376 483.196 24.672C483.144 22.748 483.144 19.836 483.144 15.936V7.2L483.092 6.264C483.092 5.588 483.196 5.172 483.352 4.964H483.404C483.56 4.808 483.872 4.756 484.444 4.756C485.016 4.808 485.38 4.808 485.588 4.808L501.032 4.548C502.488 4.496 503.528 4.444 504.204 4.444C506.024 4.444 507.584 4.6 508.988 4.86C509.144 4.912 509.508 4.964 510.08 5.068Z" fill="url(#paint0_linear_159_732)"/>
</g>
<path d="M24.992 53.464C24.992 53.464 26.592 55.448 23.104 57.08C19.264 58.872 16.576 57.016 13.568 54.616C8.992 50.968 2.752 53.816 3.104 58.04C3.264 59.768 3.904 60.792 4.992 61.496C5.6 61.912 7.264 63.064 6.528 64.888C6.528 64.888 6.208 62.872 2.976 61.56C1.44 60.92 0.704 59.864 0.864 58.52C1.184 55.512 5.216 50.104 15.2 51.928C19.424 52.696 23.328 57.208 24.992 53.464ZM13.888 71.736C16.448 72.504 18.656 70.648 18.656 70.648C17.248 75.096 13.504 75.032 12.032 74.84C10.56 74.68 8.96 73.144 6.592 72.664C4.736 72.28 3.648 74.936 3.648 74.936C3.648 74.936 3.392 72.28 6.048 70.136C7.456 68.984 8.672 68.984 9.76 69.368C9.92 68.536 9.856 67.256 9.184 65.24C8.608 63.512 7.648 62.168 6.72 60.056C5.792 58.008 5.76 54.552 8.416 53.784C8.416 53.784 8.672 54.04 8.48 54.136C7.808 54.584 7.104 55.224 7.104 56.344C7.136 57.784 7.36 58.648 9.184 60.152C11.808 62.296 14.464 64.312 14.304 66.744C14.176 68.44 13.44 69.944 12.448 70.936C12.96 71.288 13.408 71.576 13.888 71.736ZM23.168 60.984C23.168 60.984 23.2 60.92 23.296 61.048C23.2 62.584 21.408 64.408 19.008 63.96C16.224 63.416 16.864 60.856 14.72 59.64C12.64 58.456 11.776 60.952 12.672 62.488C12.8 62.68 12.672 62.616 12.608 62.712C12.608 62.712 10.848 61.688 11.648 59.832C12.352 58.168 16.128 57.336 18.4 60.024C20 61.944 22.624 62.072 23.168 60.984ZM33.5688 54.072C36.2248 57.56 33.5368 59.736 33.5368 59.736C33.5368 59.736 31.8728 60.664 32.5128 61.688C32.5128 61.688 29.8888 61.592 30.9128 57.656C31.9688 53.656 30.5608 52.152 29.2168 52.952C27.6808 53.88 26.7528 56.952 28.8008 61.592C30.8488 66.2 32.4167 67.256 31.1688 70.296C30.0488 73.144 30.9768 74.296 33.1528 74.424C33.2488 74.424 33.1848 74.68 33.1848 74.712C33.1848 74.712 28.2888 74.776 26.3688 77.464C26.2728 77.592 26.1448 77.528 26.0807 77.464C26.0807 77.464 28.8328 70.616 25.9528 61.592C23.1047 52.568 30.7848 50.424 33.5688 54.072ZM36.737 55.768H36.609C36.609 55.416 36.257 55.192 35.425 54.264C34.593 53.368 35.425 52.44 35.969 52.28C36.545 52.12 38.209 51.832 39.393 52.248C40.545 52.664 40.897 54.584 39.233 54.84C37.537 55.064 37.313 55 36.737 55.768ZM43.297 59.192H43.265L43.073 59.128C43.777 57.176 41.057 55.992 39.201 56.952C38.017 57.56 37.665 57.912 37.185 58.008C42.753 58.808 44.161 62.424 42.785 66.136C41.601 69.4 34.945 74.232 40.289 74.424V74.744C33.601 74.872 36.321 70.104 38.113 66.552C39.393 64.088 38.945 59.672 35.681 58.04C35.681 58.04 35.809 58.008 36.033 57.976C38.657 57.208 38.849 54.872 41.377 54.744C44.321 54.616 44.129 58.232 43.297 59.192ZM55.4338 56.728C60.0738 57.016 62.6978 63.512 61.8018 68.376C60.9058 73.272 58.5058 73.88 57.3218 74.424C55.9778 75 51.2418 75.064 50.8258 71.544C50.3458 67.896 52.5218 66.872 53.0658 64.856C53.4498 63.512 53.4178 62.36 52.2978 61.368L54.4738 60.44C54.4738 60.44 55.2418 62.744 54.2818 64.696C53.2898 66.616 52.2338 68.856 53.5458 71.64C54.7298 74.104 56.4578 73.752 57.3858 72.024C58.4098 70.136 58.1858 66.2 56.8418 62.488C55.5298 58.808 53.8658 55.768 50.7618 59.512C48.5858 62.168 49.0978 68.76 49.3538 71.224C50.1218 73.944 50.4418 76.344 49.7058 79.544C48.6178 84.28 44.9698 86.232 42.6017 83.928C40.2017 81.624 42.1537 77.752 42.1537 77.752C42.4417 81.816 49.4818 79.512 48.5218 75.928C47.4978 72.152 44.6178 71.608 44.1058 68.632C43.4017 64.408 45.8978 63.96 46.7938 61.208C48.0098 57.496 45.2898 58.2 45.2898 58.2C45.6418 56.888 49.5138 55.672 49.9938 57.336C50.0898 57.688 49.9938 58.072 49.8658 58.424C49.5778 59.384 46.3138 61.88 48.3298 67.928C48.2658 67.448 48.2018 66.84 48.1698 66.104C47.7858 60.792 50.8258 56.408 55.4338 56.728ZM78.9108 73.528C79.0388 73.72 79.1667 73.912 79.2308 74.136C79.2948 74.36 79.2308 74.616 79.0388 74.744C78.8148 74.904 78.5268 74.808 78.2708 74.712C77.3748 74.488 76.4468 74.68 75.6148 75C73.0548 75.928 73.0868 73.144 73.0868 72.888C73.1188 72.632 73.6948 70.04 73.6948 70.04C73.3748 70.744 72.4468 72.536 70.6548 73.816C68.5748 75.352 65.4388 75.032 64.0948 73.208C61.3427 69.464 63.8068 66.008 65.7268 64.728C67.6788 63.448 69.4388 63.192 72.2868 61.272C75.1028 59.352 74.6228 57.88 73.9828 57.336C73.3108 56.792 71.4868 55.928 68.7668 58.072C66.0148 60.216 66.4308 62.68 66.4308 62.68L66.1748 62.84L64.1908 59.896C64.9588 58.328 72.1588 54.552 75.5828 57.048C77.9188 58.712 78.0788 61.944 77.9508 64.536C77.8868 66.072 77.6308 67.576 77.6308 69.048C77.6308 70.584 77.8868 72.088 78.9108 73.528ZM75.1988 63.576C75.2948 63.032 75.3588 62.488 75.3588 61.912C75.3908 61.016 75.3268 59.864 74.8148 59.064C76.6068 66.264 69.8548 60.824 66.0148 66.328C65.2788 67.352 64.7988 68.472 65.0868 70.264C65.3108 71.544 66.9108 72.12 68.0308 71.832C69.0548 71.544 69.7908 70.616 69.9508 69.56C70.0468 69.08 69.9828 68.6 70.0788 68.088C70.2068 67.16 70.8148 66.296 71.6468 65.816C72.1267 65.56 72.7028 65.432 73.2468 65.432C73.6308 65.432 74.0468 65.624 74.3668 65.56C74.4948 65.56 74.5908 65.496 74.6868 65.4C75.0068 65.08 75.1028 64.024 75.1988 63.576ZM79.4228 74.872C79.5188 74.968 79.5508 75.032 79.5508 75.032C79.5508 75.032 79.5188 74.968 79.4228 74.872ZM92.588 67.832C91.18 69.944 91.02 73.496 95.18 74.456C95.18 74.456 89.804 75.672 87.948 73.816C86.252 72.056 88.204 69.784 90.22 68.312C92.236 66.84 93.804 65.944 93.516 63.576C93.132 60.44 91.724 60.216 87.116 60.568C88.268 62.072 88.364 64.088 87.628 66.136C86.412 69.4 79.788 74.2 85.132 74.424L85.1 74.744C78.444 74.872 81.164 70.104 82.956 66.552C84.204 64.088 83.788 59.672 80.524 58.04C80.524 58.04 80.652 58.008 80.876 57.976C83.468 57.208 83.66 54.872 86.22 54.744C89.164 54.616 88.972 58.232 88.108 59.192L87.884 59.128C88.62 57.176 85.868 55.992 84.044 56.952C82.828 57.56 82.508 57.912 82.028 58.008C83.98 58.296 85.42 58.904 86.38 59.768C87.148 59.928 88.204 59.896 89.1 59C90.7 57.368 94.156 54.904 96.3 58.36C98.828 62.424 93.804 66.008 92.588 67.832ZM112.783 60.6C112.591 61.528 112.527 62.456 112.495 63.416C112.303 66.552 112.175 69.848 113.327 72.792C113.519 73.176 113.711 73.624 113.551 74.04C113.199 75.032 111.855 74.744 111.087 74.744C109.807 74.744 108.463 74.936 108.527 73.24C108.559 72.664 108.751 72.152 108.943 71.64C109.487 70.04 109.711 68.536 109.999 66.904C110.127 66.232 110.159 65.56 110.159 64.888C110.031 64.248 108.943 59.736 106.223 58.936C103.503 58.168 100.975 60.6 100.335 63.96C99.6628 67.352 101.551 70.968 101.807 71.992C102.607 75.224 106.991 72.824 104.175 68.376C101.871 64.792 105.359 61.24 107.471 63.352L107.055 64.344C107.055 64.344 104.975 62.808 104.303 64.344C103.471 66.36 105.743 68.216 107.343 69.176C108.847 70.104 109.391 73.688 105.039 74.584C100.655 75.48 101.967 72.984 99.2788 69.496C98.6708 68.696 97.1668 67.736 97.1988 65.336C97.2308 63.448 98.2228 60.536 100.239 59.096C106.063 54.936 109.263 59.64 110.223 62.552C110.223 62.2 110.255 61.88 110.287 61.528C110.511 59.032 109.903 56.248 109.039 53.944C108.911 53.656 108.815 53.368 108.815 53.08C108.847 52.888 108.943 52.728 109.135 52.632C109.903 52.184 111.791 52.536 112.399 52.536C113.039 52.536 113.807 52.344 114.063 52.92C114.543 53.944 114.159 55.608 113.871 56.632C113.551 57.944 113.039 59.224 112.783 60.6ZM126.773 59.992C128.437 59.736 130.389 60.024 130.389 61.944C130.389 66.456 130.133 70.36 126.101 73.016C122.965 75.032 117.141 75.896 115.989 72.12C115.573 70.776 116.213 67.96 115.797 66.232C115.317 64.344 113.845 60.76 116.149 58.328C118.805 55.512 122.101 55.736 123.637 58.264C124.373 59.48 125.813 60.152 126.773 59.992ZM123.957 71.48C129.781 70.136 130.165 65.624 127.413 63.896C125.685 62.808 122.293 65.56 121.749 62.04C121.589 60.984 121.845 59.064 121.461 58.424C120.821 57.368 119.221 57.272 117.717 59.128C115.157 62.296 118.709 63.48 119.477 64.952C120.661 67.256 118.165 72.824 123.957 71.48ZM156.427 71.448C156.555 72.088 156.235 73.304 155.435 74.296C154.187 75.8 152.075 72.76 147.595 74.392C144.363 75.576 142.315 73.144 142.027 70.776C141.899 69.464 142.219 66.936 144.619 65.368C146.795 63.928 146.827 62.776 145.611 60.344C144.427 57.88 147.403 55.416 151.371 55.864C155.307 56.312 157.259 61.08 156.011 63.96C154.763 66.872 152.203 68.28 150.571 67.832C149.131 67.48 149.323 65.72 149.323 65.72C149.323 65.72 149.547 65.528 149.643 65.752C149.995 66.456 150.699 67.992 151.659 66.008C153.035 63.256 152.939 59.544 150.699 57.496C147.947 55 147.979 57.272 148.523 59.416C149.035 61.592 150.507 64.632 148.267 66.008C146.347 67.224 146.187 66.552 144.651 67.8C141.419 70.456 144.651 74.104 147.723 71.96C150.123 70.264 153.355 69.08 154.091 71.672C154.731 73.976 155.947 71.864 155.883 71.16C155.883 71.16 156.363 71.064 156.427 71.448ZM169.901 67.832C168.493 69.944 168.333 73.496 172.493 74.456C172.493 74.456 167.117 75.672 165.26 73.816C163.565 72.056 165.517 69.784 167.533 68.312C169.549 66.84 171.117 65.944 170.829 63.576C170.445 60.44 169.037 60.216 164.429 60.568C165.581 62.072 165.677 64.088 164.941 66.136C163.725 69.4 157.101 74.2 162.445 74.424L162.413 74.744C155.757 74.872 158.477 70.104 160.269 66.552C161.516 64.088 161.101 59.672 157.837 58.04C157.837 58.04 157.965 58.008 158.189 57.976C160.781 57.208 160.973 54.872 163.533 54.744C166.477 54.616 166.285 58.232 165.421 59.192L165.197 59.128C165.933 57.176 163.181 55.992 161.357 56.952C160.141 57.56 159.821 57.912 159.341 58.008C161.293 58.296 162.733 58.904 163.693 59.768C164.461 59.928 165.517 59.896 166.413 59C168.013 57.368 171.469 54.904 173.613 58.36C176.141 62.424 171.117 66.008 169.901 67.832ZM200.158 61.208L198.238 62.456C199.006 57.144 194.686 55.544 191.422 57.432C188.158 59.32 188.286 64.632 192.03 69.784C194.238 72.76 196.126 72.984 197.15 72.792C199.07 72.28 197.598 71 196.254 68.088C194.845 65.08 197.886 63.512 197.886 63.512C197.534 65.784 199.55 67.416 199.838 69.752C200.158 72.312 197.726 73.784 197.726 73.784C196.638 74.584 194.59 75.256 191.902 74.36C188.19 73.144 185.085 68.44 186.334 63.256C187.582 58.072 191.966 54.936 195.966 56.056C200.318 57.272 200.158 61.208 200.158 61.208ZM213.71 59.992C215.374 59.736 217.326 60.024 217.326 61.944C217.326 66.456 217.07 70.36 213.038 73.016C209.902 75.032 204.078 75.896 202.926 72.12C202.51 70.776 203.15 67.96 202.734 66.232C202.254 64.344 200.782 60.76 203.086 58.328C205.742 55.512 209.038 55.736 210.574 58.264C211.31 59.48 212.75 60.152 213.71 59.992ZM210.894 71.48C216.718 70.136 217.102 65.624 214.35 63.896C212.622 62.808 209.23 65.56 208.686 62.04C208.526 60.984 208.782 59.064 208.398 58.424C207.758 57.368 206.158 57.272 204.654 59.128C202.094 62.296 205.646 63.48 206.414 64.952C207.598 67.256 205.102 72.824 210.894 71.48ZM227.1 54.072C229.756 57.56 227.068 59.736 227.068 59.736C227.068 59.736 225.404 60.664 226.044 61.688C226.044 61.688 223.42 61.592 224.444 57.656C225.5 53.656 224.092 52.152 222.748 52.952C221.212 53.88 220.284 56.952 222.332 61.592C224.38 66.2 225.948 67.256 224.7 70.296C223.58 73.144 224.508 74.296 226.684 74.424C226.78 74.424 226.716 74.68 226.716 74.712C226.716 74.712 221.82 74.776 219.9 77.464C219.804 77.592 219.676 77.528 219.612 77.464C219.612 77.464 222.364 70.616 219.484 61.592C216.636 52.568 224.316 50.424 227.1 54.072ZM240.741 59.992C242.405 59.736 244.357 60.024 244.357 61.944C244.357 66.456 244.101 70.36 240.069 73.016C236.933 75.032 231.109 75.896 229.957 72.12C229.541 70.776 230.181 67.96 229.765 66.232C229.285 64.344 227.813 60.76 230.117 58.328C232.773 55.512 236.069 55.736 237.605 58.264C238.341 59.48 239.781 60.152 240.741 59.992ZM237.925 71.48C243.749 70.136 244.133 65.624 241.381 63.896C239.653 62.808 236.261 65.56 235.717 62.04C235.557 60.984 235.813 59.064 235.429 58.424C234.789 57.368 233.189 57.272 231.685 59.128C229.125 62.296 232.677 63.48 233.445 64.952C234.629 67.256 232.133 72.824 237.925 71.48ZM253.896 56.248C256.872 56.12 261.096 59.256 258.568 63.832C257.288 65.944 255.304 65.816 254.536 67.256C253.96 68.376 254.184 69.496 255.336 69.72L255.304 69.88C253.672 69.624 253.416 68.216 254.152 67.064C255.272 65.368 255.464 59.448 254.024 58.264C251.944 56.568 248.872 58.04 250.088 59.352C250.088 59.352 250.088 59.352 250.088 59.384C252.36 60.952 252.776 63.512 251.816 66.136C250.6 69.4 243.976 74.232 249.32 74.424L249.288 74.744C242.632 74.872 245.352 70.104 247.144 66.552C248.391 64.088 247.976 59.672 244.712 58.04C244.712 58.04 245.096 57.944 245.672 57.944C246.344 58.008 246.984 58.136 247.528 58.264C250.696 57.72 250.024 56.44 253.896 56.248ZM272.302 71.448C272.43 72.088 272.11 73.304 271.31 74.296C270.062 75.8 267.95 72.76 263.47 74.392C260.238 75.576 258.19 73.144 257.902 70.776C257.774 69.464 258.094 66.936 260.494 65.368C262.67 63.928 262.702 62.776 261.486 60.344C260.302 57.88 263.278 55.416 267.246 55.864C271.182 56.312 273.134 61.08 271.886 63.96C270.638 66.872 268.078 68.28 266.446 67.832C265.006 67.48 265.198 65.72 265.198 65.72C265.198 65.72 265.422 65.528 265.518 65.752C265.87 66.456 266.574 67.992 267.534 66.008C268.91 63.256 268.814 59.544 266.574 57.496C263.822 55 263.854 57.272 264.398 59.416C264.91 61.592 266.382 64.632 264.142 66.008C262.222 67.224 262.062 66.552 260.526 67.8C257.294 70.456 260.526 74.104 263.598 71.96C265.998 70.264 269.23 69.08 269.966 71.672C270.606 73.976 271.822 71.864 271.758 71.16C271.758 71.16 272.238 71.064 272.302 71.448ZM285.737 64.664C288.809 66.456 288.713 69.848 287.625 71.48C286.505 73.08 284.361 75.608 280.361 74.424C277.289 73.528 276.489 72.824 277.001 70.296C277.513 67.8 276.489 67 275.593 67.192C274.505 67.48 275.593 69.272 275.593 69.272C275.593 69.272 274.313 69.496 273.993 68.312C273.769 67.352 274.249 66.168 275.369 66.136C278.089 66.04 277.769 68.888 280.105 72.28C282.121 75.192 285.897 73.624 285.321 70.296C284.553 65.912 278.601 68.6 275.177 64.344C272.553 61.112 275.081 57.208 278.313 56.664C281.033 56.184 282.537 58.392 284.297 60.76C286.025 63.064 288.265 62.776 287.721 60.216C287.337 58.392 284.329 58.488 284.265 59.192C284.265 59.192 284.329 57.944 285.609 57.112C286.889 56.28 288.489 58.488 288.681 59.864C288.969 62.168 286.409 64.824 282.505 63.064C281.001 62.392 280.649 61.368 280.617 59.448C280.553 56.856 275.529 56.952 276.521 60.856C277.545 64.76 282.633 62.872 285.737 64.664Z" fill="url(#paint1_linear_159_732)"/>
<defs>
<filter id="filter0_d_159_732" x="0.0167644" y="4.39197" width="517.951" height="42.8667" filterUnits="userSpaceOnUse" color-interpolation-filters="sRGB">
<feFlood flood-opacity="0" result="BackgroundImageFix"/>
<feColorMatrix in="SourceAlpha" type="matrix" values="0 0 0 0 0 0 0 0 0 0 0 0 0 0 0 0 0 0 127 0" result="hardAlpha"/>
<feOffset dy="2.58333"/>
<feGaussianBlur stdDeviation="1.29167"/>
<feComposite in2="hardAlpha" operator="out"/>
<feColorMatrix type="matrix" values="0 0 0 0 0 0 0 0 0 0 0 0 0 0 0 0 0 0 0.25 0"/>
<feBlend mode="normal" in2="BackgroundImageFix" result="effect1_dropShadow_159_732"/>
<feBlend mode="normal" in="SourceGraphic" in2="effect1_dropShadow_159_732" result="shape"/>
</filter>
<linearGradient id="paint0_linear_159_732" x1="0" y1="26" x2="535" y2="26" gradientUnits="userSpaceOnUse">
<stop stop-color="#FF00F6"/>
<stop offset="0.505" stop-color="#82D8E0"/>
<stop offset="1" stop-color="#5A42BB"/>
</linearGradient>
<linearGradient id="paint1_linear_159_732" x1="0" y1="68" x2="554" y2="68" gradientUnits="userSpaceOnUse">
<stop offset="0.16" stop-color="#7059BF"/>
<stop offset="0.32" stop-color="#E84E8C"/>
<stop offset="0.48" stop-color="#F35432"/>
<stop offset="0.64" stop-color="#3076ED"/>
<stop offset="0.8" stop-color="#E9BA24"/>
<stop offset="0.96" stop-color="#248470"/>
</linearGradient>
</defs>
</svg>
