<svg width="535" height="89" viewBox="0 0 535 89" fill="none" xmlns="http://www.w3.org/2000/svg">
<g filter="url(#filter0_d_64_144)">
<path d="M33.8 31.888V39.064C33.8 39.532 33.748 39.844 33.696 40.104C33.644 40.364 33.54 40.468 33.332 40.468C33.124 40.468 32.916 40.364 32.76 40.312L31.668 40C29.172 38.96 26.468 38.388 23.504 38.336L21.944 38.284C19.656 38.284 16.64 38.544 12.844 39.064C9.724 39.48 6.552 39.844 3.38 40.156H3.224C2.808 40.156 2.6 39.948 2.6 39.532C2.6 39.272 2.704 39.064 2.86 38.804C4.264 36.568 4.992 33.968 4.992 30.9C4.992 29.964 4.94 29.028 4.836 28.092C4.472 25.492 4.004 22.424 3.328 18.94C2.86 16.288 2.6 13.948 2.6 11.972C2.6 10.1 3.12 8.436 4.108 6.304C4.784 4.952 5.928 4.12 7.488 3.86C8.476 3.652 9.672 3.548 11.18 3.548C14.404 3.548 17.368 3.86 20.124 4.484C21.736 4.848 23.192 5.108 24.388 5.16C24.752 5.212 25.272 5.212 25.948 5.212C26.884 5.212 27.716 5.16 28.392 5.004C29.068 4.9 29.692 4.692 30.264 4.38C30.472 4.276 30.784 4.068 31.2 3.808C31.252 3.756 31.564 3.392 31.772 3.392C31.824 3.392 31.876 3.392 31.928 3.444C31.98 3.496 32.136 4.068 32.188 4.224C32.396 4.848 32.656 5.94 32.812 6.356L33.02 7.396C33.28 8.592 33.488 9.476 33.54 10.048C33.54 10.256 33.748 11.244 33.748 11.92C33.748 12.544 33.644 12.96 33.384 13.116C33.228 13.272 33.072 13.376 32.864 13.48C32.396 13.74 32.032 13.948 31.772 14C30.888 14.364 30.108 14.416 28.704 14.416C25.428 14.416 22.412 13.636 19.708 12.128C18.772 11.66 17.628 10.932 16.276 9.944L14.976 9.06C13.832 8.28 13.208 7.864 13.052 7.76C11.752 6.876 10.712 6.2 10.036 5.784C9.464 5.42 8.892 5.264 8.32 5.264C7.072 5.264 6.032 6.2 5.772 7.708C5.72 8.124 5.668 8.488 5.668 8.748C5.668 9.164 5.72 9.58 5.824 9.944C6.292 11.504 6.76 12.7 7.28 13.48L8.84 15.768C10.296 17.796 11.336 19.356 11.908 20.448L12.324 21.28C12.532 21.488 12.532 21.904 12.896 21.904C13.26 21.904 13.78 21.696 13.988 21.644L16.484 20.708C17.368 20.344 18.044 20.084 18.512 19.876L21.424 18.732C21.476 18.732 23.4 17.9 23.764 17.9C23.972 17.9 24.128 17.952 24.18 18.108C24.232 18.16 24.232 18.316 24.232 18.576C24.232 19.2 23.92 21.644 23.868 22.008C23.66 23.412 23.504 24.504 23.348 25.336C23.296 25.544 23.296 26.22 22.932 26.22C22.568 26.22 22.152 25.544 21.892 25.336C21.424 24.972 20.904 24.66 20.436 24.4C19.448 23.88 18.356 23.568 17.16 23.464C16.692 23.464 16.068 23.412 15.808 23.412C15.548 23.412 15.34 23.412 15.132 23.464C14.56 23.464 13.624 23.672 13.572 24.036V24.14C13.572 24.296 13.624 24.556 13.728 24.972L14.248 27.052C14.612 28.508 14.82 29.6 14.924 30.328C15.028 31.004 15.08 32.096 15.08 33.552V36.984C15.34 36.984 15.6 37.036 15.756 37.036C15.912 37.036 16.068 37.036 16.224 36.984L17.68 36.724C20.592 36.256 22.776 35.84 24.284 35.476C26.884 34.904 29.172 33.812 31.2 32.252C31.46 32.044 32.188 31.42 32.812 31.212C32.968 31.16 33.124 31.16 33.28 31.16C33.436 31.16 33.592 31.212 33.644 31.264C33.748 31.368 33.8 31.576 33.8 31.888ZM69.0142 29.86C69.6902 30.224 70.0022 30.692 70.0022 31.264C70.0022 32.044 69.8982 32.616 69.8462 33.032C69.6902 34.176 69.4302 35.632 69.1182 37.452L68.7542 39.584C68.7542 39.74 68.6502 40.468 68.4942 40.52L68.4422 40.572H68.3902C68.3382 40.572 68.2342 40.364 68.0782 40.312C67.6102 39.948 67.3502 39.74 67.2462 39.688C66.8822 39.376 66.3102 39.116 65.6342 38.856C64.8542 38.596 63.9182 38.44 62.8262 38.44C60.9022 38.44 59.0822 38.596 57.3662 38.96C53.9342 39.74 50.7622 40.104 47.8502 40.104C47.3822 40.104 46.9662 40.104 46.4982 40.052C46.0822 40.052 45.3542 40.052 44.4702 39.896C42.4422 39.636 41.0382 38.596 40.3102 36.828C39.4262 34.904 39.0102 33.188 39.0102 31.68C39.0102 29.496 39.1662 27.624 39.5302 26.064C39.8942 24.088 40.2062 22.476 40.4142 21.176L41.1422 16.132C41.3502 14.624 41.4542 13.48 41.4542 12.7C41.4542 11.504 41.2982 10.308 40.9862 9.112C40.6222 7.916 39.8422 6.148 39.6342 5.524C39.4782 5.316 39.2182 4.796 39.1662 4.432V4.38C39.1662 3.964 39.5302 3.756 40.2582 3.756C42.1822 3.704 45.0422 3.704 48.8902 3.704C50.2942 3.704 50.6582 3.964 50.9182 5.264C51.3342 7.24 51.5422 8.956 51.5422 10.464C51.5422 12.024 51.3862 13.532 51.0222 14.936C50.1902 18.732 49.2022 21.748 47.5382 24.504C46.9142 25.544 45.8742 27.052 44.4182 28.976C43.6382 30.016 42.9622 31.264 42.4422 32.772C42.2342 33.292 42.1302 33.812 42.1302 34.384C42.1302 35.164 42.3382 35.944 42.7542 36.724C43.3262 37.712 44.0542 38.284 44.8862 38.284C45.3542 38.284 45.8222 38.128 46.3422 37.816C47.2782 37.348 48.4222 36.62 49.7742 35.632L50.7102 35.008C51.8542 34.228 52.4782 33.812 52.6342 33.708C53.9342 32.824 54.9742 32.148 55.6502 31.732C58.3022 30.068 61.5262 29.08 64.5942 29.08C64.9582 29.08 65.5302 29.132 66.3102 29.184C67.2982 29.288 68.1822 29.496 69.0142 29.86ZM122.995 25.544V34.54C122.995 35.424 122.631 36.152 121.851 36.724C119.875 38.18 117.899 39.116 115.923 39.48C113.687 39.844 111.555 40.052 109.475 40.052C107.447 40.052 105.315 39.844 103.027 39.48C100.167 39.012 97.619 37.608 95.383 35.268C93.303 33.084 92.003 30.588 91.431 27.728C91.015 25.492 90.807 23.464 90.807 21.748C90.807 19.876 91.015 18.056 91.483 16.288C92.263 13.324 93.563 10.932 95.279 9.008C97.151 6.928 99.491 5.732 103.079 4.484C104.639 3.912 106.303 3.652 108.019 3.652C109.267 3.652 110.879 3.86 112.855 4.224C113.115 4.276 113.687 4.38 114.623 4.64C115.403 4.848 116.183 4.952 116.963 4.952C118.055 4.952 119.043 4.796 119.979 4.432C120.551 4.276 121.019 4.016 121.591 3.86C121.903 3.808 122.163 3.756 122.319 3.756H122.475C122.631 3.86 122.683 4.016 122.683 4.276V4.432C122.683 6.044 122.683 7.292 122.631 8.072C122.631 9.32 122.631 10.256 122.579 10.932V12.336C122.579 12.544 122.631 13.116 122.267 13.324L121.851 13.532C121.487 13.688 121.227 13.74 121.123 13.792C120.291 14.052 119.147 14.26 117.743 14.52C117.171 14.624 116.547 14.676 115.975 14.676C114.415 14.676 112.907 14.26 111.399 13.48C109.787 12.596 108.071 12.024 106.251 11.764C105.575 11.66 104.899 11.608 104.327 11.608C100.583 11.608 97.411 13.324 94.811 16.808C93.927 18.004 93.459 19.512 93.459 21.332C93.459 23.62 94.291 25.856 95.799 27.26C98.295 29.652 101.155 30.848 104.379 30.848C110.151 30.848 115.611 29.236 120.655 25.96L121.643 25.336C121.955 25.024 122.267 24.868 122.527 24.868C122.839 24.868 122.995 25.076 122.995 25.544ZM158.186 29.86C158.862 30.224 159.174 30.692 159.174 31.264C159.174 32.044 159.07 32.616 159.018 33.032C158.862 34.176 158.602 35.632 158.29 37.452L157.926 39.584C157.926 39.74 157.822 40.468 157.666 40.52L157.614 40.572H157.562C157.51 40.572 157.406 40.364 157.25 40.312C156.782 39.948 156.522 39.74 156.418 39.688C156.054 39.376 155.482 39.116 154.806 38.856C154.026 38.596 153.09 38.44 151.998 38.44C150.074 38.44 148.254 38.596 146.538 38.96C143.106 39.74 139.934 40.104 137.022 40.104C136.554 40.104 136.138 40.104 135.67 40.052C135.254 40.052 134.526 40.052 133.642 39.896C131.614 39.636 130.21 38.596 129.482 36.828C128.598 34.904 128.182 33.188 128.182 31.68C128.182 29.496 128.338 27.624 128.702 26.064C129.066 24.088 129.378 22.476 129.586 21.176L130.314 16.132C130.522 14.624 130.626 13.48 130.626 12.7C130.626 11.504 130.47 10.308 130.158 9.112C129.794 7.916 129.014 6.148 128.806 5.524C128.65 5.316 128.39 4.796 128.338 4.432V4.38C128.338 3.964 128.702 3.756 129.43 3.756C131.354 3.704 134.214 3.704 138.062 3.704C139.466 3.704 139.83 3.964 140.09 5.264C140.506 7.24 140.714 8.956 140.714 10.464C140.714 12.024 140.558 13.532 140.194 14.936C139.362 18.732 138.374 21.748 136.71 24.504C136.086 25.544 135.046 27.052 133.59 28.976C132.81 30.016 132.134 31.264 131.614 32.772C131.406 33.292 131.302 33.812 131.302 34.384C131.302 35.164 131.51 35.944 131.926 36.724C132.498 37.712 133.226 38.284 134.058 38.284C134.526 38.284 134.994 38.128 135.514 37.816C136.45 37.348 137.594 36.62 138.946 35.632L139.882 35.008C141.026 34.228 141.65 33.812 141.806 33.708C143.106 32.824 144.146 32.148 144.822 31.732C147.474 30.068 150.698 29.08 153.766 29.08C154.13 29.08 154.702 29.132 155.482 29.184C156.47 29.288 157.354 29.496 158.186 29.86ZM197.253 5.264C197.877 7.292 198.189 9.216 198.189 10.984C198.189 12.284 198.033 13.428 197.773 14.416C197.617 15.248 197.409 15.976 197.253 16.548C196.785 18.576 196.473 19.98 196.213 20.812C195.641 22.84 195.329 25.076 195.329 27.52C195.381 29.548 195.381 32.616 195.381 36.62C195.381 37.452 195.381 38.076 195.329 38.492V38.752C195.329 39.168 195.173 39.428 194.913 39.532C194.861 39.532 194.601 39.688 194.393 39.688L183.005 39.792C182.537 39.792 182.329 39.636 182.329 39.376V39.22C182.433 38.856 182.589 38.596 182.797 38.336C183.265 37.66 183.577 37.088 183.629 36.568C183.629 36.412 183.733 36.152 183.733 35.996C183.733 35.944 183.681 35.892 183.629 35.84H183.473C183.213 35.84 183.057 35.84 183.005 35.892L181.549 36.568C179.261 37.66 177.545 38.492 176.401 38.96C175.153 39.532 173.853 39.792 172.449 39.792C171.253 39.792 170.057 39.584 168.861 39.168C167.405 38.7 166.365 37.764 165.741 36.36C164.857 34.436 164.389 32.356 164.389 30.016C164.389 26.844 164.909 23.724 165.897 20.604C166.729 17.848 167.197 15.144 167.613 11.244C167.665 10.984 167.665 10.568 167.665 9.996C167.665 9.216 167.665 8.644 167.613 8.28C167.561 7.864 167.457 6.72 167.249 6.044C167.197 5.784 166.417 4.744 166.417 4.328V4.172V4.12C166.573 3.86 167.197 3.756 168.185 3.756C171.877 3.756 174.685 3.704 176.505 3.652H176.817C177.493 3.652 177.857 3.808 178.325 4.692C179.105 6.148 179.469 7.552 179.469 8.852C179.469 10.724 178.845 12.544 177.597 14.312C176.921 15.248 176.193 16.184 175.361 17.068C174.529 17.952 174.061 18.472 173.905 18.628C172.397 20.24 170.837 22.32 169.225 24.764C167.925 26.844 167.353 29.236 167.093 32.304V32.564C167.249 35.84 168.913 37.816 171.669 37.816C172.345 37.816 173.125 37.66 174.009 37.4C175.933 36.828 177.649 35.736 179.209 34.228C181.601 31.784 183.525 28.82 184.929 25.284C186.125 22.112 186.957 19.044 187.425 16.132C187.581 15.352 187.633 14.416 187.633 13.428C187.633 12.128 187.477 10.88 187.165 9.632C186.905 8.54 186.489 7.5 185.917 6.616C185.709 6.252 184.513 4.848 184.513 4.224C184.513 3.912 184.773 3.756 185.345 3.756C187.529 3.704 190.805 3.704 195.121 3.704C196.577 3.704 196.837 3.86 197.253 5.264ZM230.533 34.54C231.313 33.656 231.729 32.616 231.729 31.524C231.729 27.728 227.933 26.324 224.657 26.324C222.525 26.324 221.121 26.272 219.093 25.388C217.533 24.868 215.609 23.36 215.609 21.592C215.609 20.708 216.025 19.824 216.909 19.044C217.169 18.784 217.533 18.472 218.001 18.212C218.469 17.952 218.781 17.744 218.989 17.588L220.185 16.756C221.173 16.132 221.849 15.612 222.317 15.248C223.461 14.208 224.033 12.96 224.033 11.556C224.033 7.448 219.821 6.356 216.389 6.356C215.817 6.356 215.349 6.356 215.089 6.408C213.945 6.512 213.789 7.656 213.789 8.592C213.789 9.84 213.737 11.66 213.685 14.104C213.633 18.004 213.581 20.864 213.581 22.788V26.012C213.581 27.312 213.633 29.288 213.685 31.94C213.685 33.24 213.685 34.176 213.737 34.8C213.737 35.632 213.737 36.256 213.789 36.672C213.789 36.984 213.789 37.244 213.841 37.4C213.841 37.92 214.413 37.972 214.777 37.972C215.141 38.024 215.349 38.024 215.505 38.024C218.833 38.024 221.329 38.076 222.993 38.128C225.749 38.232 228.297 37.036 230.533 34.54ZM228.245 19.408C232.353 19.408 237.189 20.344 239.165 24.452C239.841 25.856 240.205 27.312 240.205 28.872C240.205 29.964 240.049 30.952 239.685 31.94C238.125 36.152 232.145 39.22 227.933 39.532C225.801 39.688 222.733 39.844 218.625 40C217.897 40.052 216.753 40 215.245 39.948L208.485 39.74C208.225 39.688 207.861 39.688 207.445 39.74C206.977 39.792 206.613 39.792 206.301 39.792C205.521 39.792 204.793 39.688 204.221 39.428C204.169 39.428 204.065 39.376 204.013 39.324C203.597 39.064 203.389 38.544 203.389 37.868C203.389 37.556 203.441 37.244 203.493 36.984C203.545 36.724 203.545 36.412 203.545 36.152L203.597 31.628V22.58C203.597 18.16 203.597 14.832 203.545 12.596V7.552L203.493 5.524C203.493 4.744 203.597 4.224 203.753 3.964C203.909 3.756 204.169 3.652 204.585 3.652C205.157 3.652 206.093 3.704 207.341 3.756C208.225 3.86 209.161 3.912 210.045 3.912C211.709 3.912 214.257 3.86 217.637 3.704C220.133 3.548 222.629 3.548 225.125 3.548C229.493 3.548 235.733 4.484 235.733 10.1C235.733 14.988 231.521 17.068 227.257 17.692L221.225 18.732C220.445 18.836 219.821 18.94 219.405 19.044C218.989 19.2 218.625 19.408 218.261 19.72C218.053 19.928 217.949 20.188 217.949 20.448C217.949 20.656 218.001 20.812 218.157 20.916C218.313 21.072 218.469 21.124 218.729 21.072C219.613 20.916 220.341 20.76 220.913 20.552C223.253 19.772 225.697 19.408 228.245 19.408ZM272.467 37.972C280.995 37.868 286.871 30.432 286.871 22.216C286.871 14.676 282.035 7.136 274.391 5.576C273.715 5.42 273.143 5.368 272.779 5.368C271.895 5.368 271.479 5.784 271.427 6.616L271.323 10.568C271.271 12.388 271.167 15.092 271.115 18.68C271.115 23.672 271.167 28.664 271.271 33.656C271.271 33.864 271.271 34.124 271.219 34.436C271.167 34.748 271.167 35.112 271.167 35.58C271.167 36.568 271.323 37.296 271.687 37.66C271.895 37.92 272.155 38.024 272.467 37.972ZM291.967 10.88C294.671 13.584 296.179 18.576 296.179 22.268C296.179 28.872 291.915 34.592 285.987 37.244C281.463 39.22 277.147 40.104 272.987 39.948C270.751 39.844 267.319 39.792 262.743 39.792C262.223 39.792 261.807 39.74 261.547 39.584C261.235 39.48 261.079 39.22 261.027 38.856C260.975 38.648 260.975 38.336 260.975 37.92C261.079 32.564 261.131 27.208 261.131 21.852L261.079 5.784C261.079 5.628 261.079 5.42 261.027 5.16C260.975 4.9 260.975 4.692 260.975 4.432C260.975 4.224 261.027 3.496 261.339 3.496C261.391 3.444 261.547 3.444 261.807 3.444C262.067 3.444 262.327 3.444 262.691 3.496C263.003 3.548 263.211 3.6 263.367 3.6C263.939 3.652 264.875 3.652 266.071 3.652L268.723 3.6C269.295 3.548 270.127 3.548 271.323 3.548C273.559 3.6 275.223 3.704 276.315 3.756L278.811 3.86C283.699 4.068 288.691 7.396 291.967 10.88ZM332.597 31.888V39.064C332.597 39.532 332.545 39.844 332.493 40.104C332.441 40.364 332.337 40.468 332.129 40.468C331.921 40.468 331.713 40.364 331.557 40.312L330.465 40C327.969 38.96 325.265 38.388 322.301 38.336L320.741 38.284C318.453 38.284 315.437 38.544 311.641 39.064C308.521 39.48 305.349 39.844 302.177 40.156H302.021C301.605 40.156 301.397 39.948 301.397 39.532C301.397 39.272 301.501 39.064 301.657 38.804C303.061 36.568 303.789 33.968 303.789 30.9C303.789 29.964 303.737 29.028 303.633 28.092C303.269 25.492 302.801 22.424 302.125 18.94C301.657 16.288 301.397 13.948 301.397 11.972C301.397 10.1 301.917 8.436 302.905 6.304C303.581 4.952 304.725 4.12 306.285 3.86C307.273 3.652 308.469 3.548 309.977 3.548C313.201 3.548 316.165 3.86 318.921 4.484C320.533 4.848 321.989 5.108 323.185 5.16C323.549 5.212 324.069 5.212 324.745 5.212C325.681 5.212 326.513 5.16 327.189 5.004C327.865 4.9 328.489 4.692 329.061 4.38C329.269 4.276 329.581 4.068 329.997 3.808C330.049 3.756 330.361 3.392 330.569 3.392C330.621 3.392 330.673 3.392 330.725 3.444C330.777 3.496 330.933 4.068 330.985 4.224C331.193 4.848 331.453 5.94 331.609 6.356L331.817 7.396C332.077 8.592 332.285 9.476 332.337 10.048C332.337 10.256 332.545 11.244 332.545 11.92C332.545 12.544 332.441 12.96 332.181 13.116C332.025 13.272 331.869 13.376 331.661 13.48C331.193 13.74 330.829 13.948 330.569 14C329.685 14.364 328.905 14.416 327.501 14.416C324.225 14.416 321.209 13.636 318.505 12.128C317.569 11.66 316.425 10.932 315.073 9.944L313.773 9.06C312.629 8.28 312.005 7.864 311.849 7.76C310.549 6.876 309.509 6.2 308.833 5.784C308.261 5.42 307.689 5.264 307.117 5.264C305.869 5.264 304.829 6.2 304.569 7.708C304.517 8.124 304.465 8.488 304.465 8.748C304.465 9.164 304.517 9.58 304.621 9.944C305.089 11.504 305.557 12.7 306.077 13.48L307.637 15.768C309.093 17.796 310.133 19.356 310.705 20.448L311.121 21.28C311.329 21.488 311.329 21.904 311.693 21.904C312.057 21.904 312.577 21.696 312.785 21.644L315.281 20.708C316.165 20.344 316.841 20.084 317.309 19.876L320.221 18.732C320.273 18.732 322.197 17.9 322.561 17.9C322.769 17.9 322.925 17.952 322.977 18.108C323.029 18.16 323.029 18.316 323.029 18.576C323.029 19.2 322.717 21.644 322.665 22.008C322.457 23.412 322.301 24.504 322.145 25.336C322.093 25.544 322.093 26.22 321.729 26.22C321.365 26.22 320.949 25.544 320.689 25.336C320.221 24.972 319.701 24.66 319.233 24.4C318.245 23.88 317.153 23.568 315.957 23.464C315.489 23.464 314.865 23.412 314.605 23.412C314.345 23.412 314.137 23.412 313.929 23.464C313.357 23.464 312.421 23.672 312.369 24.036V24.14C312.369 24.296 312.421 24.556 312.525 24.972L313.045 27.052C313.409 28.508 313.617 29.6 313.721 30.328C313.825 31.004 313.877 32.096 313.877 33.552V36.984C314.137 36.984 314.397 37.036 314.553 37.036C314.709 37.036 314.865 37.036 315.021 36.984L316.477 36.724C319.389 36.256 321.573 35.84 323.081 35.476C325.681 34.904 327.969 33.812 329.997 32.252C330.257 32.044 330.985 31.42 331.609 31.212C331.765 31.16 331.921 31.16 332.077 31.16C332.233 31.16 332.389 31.212 332.441 31.264C332.545 31.368 332.597 31.576 332.597 31.888ZM367.811 29.86C368.487 30.224 368.799 30.692 368.799 31.264C368.799 32.044 368.695 32.616 368.643 33.032C368.487 34.176 368.227 35.632 367.915 37.452L367.551 39.584C367.551 39.74 367.447 40.468 367.291 40.52L367.239 40.572H367.187C367.135 40.572 367.031 40.364 366.875 40.312C366.407 39.948 366.147 39.74 366.043 39.688C365.679 39.376 365.107 39.116 364.431 38.856C363.651 38.596 362.715 38.44 361.623 38.44C359.699 38.44 357.879 38.596 356.163 38.96C352.731 39.74 349.559 40.104 346.647 40.104C346.179 40.104 345.763 40.104 345.295 40.052C344.879 40.052 344.151 40.052 343.267 39.896C341.239 39.636 339.835 38.596 339.107 36.828C338.223 34.904 337.807 33.188 337.807 31.68C337.807 29.496 337.963 27.624 338.327 26.064C338.691 24.088 339.003 22.476 339.211 21.176L339.939 16.132C340.147 14.624 340.251 13.48 340.251 12.7C340.251 11.504 340.095 10.308 339.783 9.112C339.419 7.916 338.639 6.148 338.431 5.524C338.275 5.316 338.015 4.796 337.963 4.432V4.38C337.963 3.964 338.327 3.756 339.055 3.756C340.979 3.704 343.839 3.704 347.687 3.704C349.091 3.704 349.455 3.964 349.715 5.264C350.131 7.24 350.339 8.956 350.339 10.464C350.339 12.024 350.183 13.532 349.819 14.936C348.987 18.732 347.999 21.748 346.335 24.504C345.711 25.544 344.671 27.052 343.215 28.976C342.435 30.016 341.759 31.264 341.239 32.772C341.031 33.292 340.927 33.812 340.927 34.384C340.927 35.164 341.135 35.944 341.551 36.724C342.123 37.712 342.851 38.284 343.683 38.284C344.151 38.284 344.619 38.128 345.139 37.816C346.075 37.348 347.219 36.62 348.571 35.632L349.507 35.008C350.651 34.228 351.275 33.812 351.431 33.708C352.731 32.824 353.771 32.148 354.447 31.732C357.099 30.068 360.323 29.08 363.391 29.08C363.755 29.08 364.327 29.132 365.107 29.184C366.095 29.288 366.979 29.496 367.811 29.86ZM419.452 7.604L419.556 9.32C419.556 9.788 419.764 10.62 419.764 10.984C419.764 11.816 419.088 12.024 418.204 12.024C416.072 12.024 414.512 12.024 413.42 12.076L408.584 12.128H407.128C406.452 12.128 405.984 12.128 405.62 12.18C404.112 12.232 403.072 13.324 403.072 14.728C403.072 15.04 403.124 15.352 403.228 15.664C403.696 16.964 404.424 18.16 405.516 19.252C407.284 21.124 408.844 22.84 410.196 24.452C412.016 26.792 413.316 29.288 414.096 32.044C414.304 32.876 414.408 33.708 414.408 34.54C414.408 35.268 414.304 35.996 414.096 36.672C414.044 36.932 413.888 37.244 413.68 37.66C413.524 37.92 413.472 38.232 413.264 38.596C413.004 39.012 412.744 39.792 412.068 39.792H410.404C406.868 39.844 404.32 39.896 403.332 39.896C402.344 39.896 401.564 39.896 400.992 39.844C400.94 39.844 400.68 39.896 400.628 39.896C400.576 39.896 400.472 39.844 400.42 39.792C400.316 39.688 400.264 39.584 400.264 39.428C400.264 39.064 400.628 38.44 400.68 38.284C401.46 36.568 401.928 34.436 401.98 31.94C402.032 31.42 402.032 30.64 402.032 29.652C402.032 26.896 401.72 24.296 401.148 21.852C401.096 21.644 400.992 21.28 400.94 20.708C400.784 19.928 400.68 19.356 400.576 18.992C400.42 18.108 400.316 17.38 400.316 16.704C400.316 15.716 400.472 14.676 400.732 13.636C400.784 13.532 400.888 13.064 401.044 12.232C400.576 12.18 399.848 12.18 398.86 12.18C397.612 12.18 396.52 12.232 395.532 12.388C394.7 12.492 393.556 12.596 392.152 12.752H391.996C391.528 12.752 391.164 12.544 391.008 12.128C390.54 10.828 390.176 9.476 389.916 8.072C389.864 7.5 389.604 6.304 389.604 5.524C389.656 4.432 390.176 4.12 391.424 4.068C393.14 3.964 397.352 3.808 404.112 3.652C410.872 3.496 415.136 3.392 416.904 3.392C417.58 3.392 417.944 3.392 418.048 3.444C418.724 3.6 418.932 4.068 419.14 5.16C419.296 5.732 419.4 6.512 419.452 7.604ZM461.504 39.116C461.972 39.532 462.284 39.844 462.284 40.052C462.284 40.104 462.284 40.104 462.232 40.156C462.076 40.364 461.4 40.572 460.256 40.78C459.112 40.936 458.176 41.04 457.396 41.092H456.72C455.108 41.092 453.548 40.884 452.092 40.416C450.48 39.948 449.596 38.44 448.088 35.736C447.828 35.268 446.788 33.344 445.956 32.096C445.488 31.472 445.072 30.9 444.604 30.432C443.72 29.392 442.68 28.768 440.964 27.728C440.704 27.572 439.456 26.896 438.676 26.22C438.312 25.908 438 25.544 437.792 25.18C437.584 24.764 437.48 24.348 437.48 23.88C437.48 22.996 437.792 22.216 438.468 21.488C438.728 21.228 439.092 20.916 439.664 20.5L441.484 19.148C442.576 18.316 443.356 17.692 443.824 17.224C445.02 16.028 445.592 14.676 445.592 13.064C445.592 12.284 445.488 11.556 445.228 10.932C444.656 9.476 443.668 8.488 442.212 7.968C440.808 7.396 439.404 7.136 437.948 7.136C437.688 7.136 437.22 7.188 436.596 7.24C435.504 7.396 435.348 8.332 435.348 8.748V38.544C435.348 39.74 435.14 40.156 434.048 40.208C430.98 40.26 428.744 40.312 427.236 40.312C425.208 40.312 424.948 40.156 424.948 38.648L425 35.008C425.052 32.356 425.104 30.432 425.104 29.184V25.492C425.104 20.5 425.104 16.756 425.052 14.26V8.54L425 6.2C425 4.484 425.208 4.12 426.092 4.12C427.08 4.12 428.068 4.172 429.108 4.276C429.784 4.328 430.772 4.432 432.072 4.432C436.076 4.38 439.092 4.172 441.016 4.12L445.488 3.964H446.476C448.556 3.964 450.272 4.172 451.624 4.536C452.612 4.796 453.288 5.056 453.756 5.316C456.044 6.512 457.292 8.8 457.292 11.348C457.292 12.128 457.188 12.804 457.032 13.428C456.408 15.82 455.212 17.484 453.392 18.42C452.404 18.94 451.26 19.356 450.012 19.72C449.44 19.876 449.024 19.928 448.816 19.98C448.192 20.136 447.048 20.344 445.332 20.656C444.656 20.812 443.512 20.916 442.94 20.968C442.68 21.02 441.38 21.072 440.756 21.54L440.496 21.748C440.444 21.8 440.444 21.904 440.444 22.06C440.444 22.32 440.496 22.476 440.652 22.58C440.808 22.684 441.016 22.736 441.38 22.736H442.784C443.044 22.736 443.512 22.684 443.668 22.684C443.824 22.684 443.98 22.684 444.136 22.736L445.592 22.892C446.216 22.944 446.632 23.152 446.996 23.204C449.804 23.88 452.092 25.076 453.86 26.688C454.848 27.572 455.628 28.56 456.148 29.548C456.668 30.588 457.344 32.096 458.124 34.124C458.54 35.372 458.904 36.308 459.268 36.88C459.736 37.712 460.672 38.492 461.504 39.116ZM477.852 34.644L477.956 37.92C477.956 38.284 477.904 38.596 477.8 38.908C477.644 39.48 477.28 39.532 476.396 39.688C475.98 39.74 475.356 39.792 474.472 39.792H472.548C472.08 39.792 471.3 39.896 470.416 39.896C468.596 39.896 467.66 39.428 467.504 38.492C467.452 38.128 467.452 37.608 467.452 36.88C467.452 36.204 467.504 35.164 467.556 33.76L467.608 32.564C467.712 30.796 467.764 29.392 467.764 28.352V27.676C467.66 25.232 467.608 22.788 467.608 20.344L467.66 15.716C467.66 14.728 467.66 13.896 467.608 13.22L467.556 8.852C467.556 5.94 467.712 4.38 467.972 4.224C468.44 3.912 469.844 3.756 472.132 3.756C474.264 3.756 476.916 3.912 477.28 4.068C477.436 4.12 477.488 4.224 477.54 4.276C477.696 4.432 477.8 5.628 477.8 7.812C477.8 9.008 477.748 10.776 477.696 13.116L477.644 16.964C477.644 20.916 477.696 26.792 477.852 34.644ZM500.98 16.236C502.436 15.092 503.736 13.324 503.736 11.4C503.736 9.268 502.28 7.76 500.408 7.032C500.044 6.928 499.68 6.772 499.316 6.72C497.496 6.46 495.884 6.304 494.428 6.356C494.168 6.356 493.596 6.46 493.388 6.564C493.232 6.668 493.18 6.824 493.128 6.98C493.076 7.188 493.024 7.448 493.024 7.76C492.972 8.228 492.92 8.956 492.92 9.944C492.92 10.256 492.92 10.672 492.972 11.14C492.972 11.608 492.972 12.18 492.92 12.856C492.868 14.676 492.816 17.38 492.816 20.968C492.816 21.54 492.972 21.8 493.232 21.8C493.492 21.8 493.804 21.644 494.272 21.28L496.976 19.252C498.796 17.952 500.096 16.912 500.98 16.236ZM510.08 4.068C513.096 4.9 515.384 6.824 515.384 10.1C515.384 16.028 509.248 19.616 504.152 20.812L501.968 21.384C498.796 22.112 493.492 23.308 493.492 27.312L493.44 35.372L493.492 37.764V38.336C493.492 39.168 493.388 39.844 492.348 39.844C492.088 39.844 491.724 39.844 491.36 39.792C490.996 39.74 490.684 39.74 490.424 39.792H488.24L483.872 39.896C483.196 39.896 483.092 38.96 483.092 38.44C483.04 37.66 483.092 36.724 483.144 35.736C483.248 33.708 483.3 31.68 483.3 29.652C483.3 28.352 483.248 26.376 483.196 23.672C483.144 21.748 483.144 18.836 483.144 14.936V6.2L483.092 5.264C483.092 4.588 483.196 4.172 483.352 3.964H483.404C483.56 3.808 483.872 3.756 484.444 3.756C485.016 3.808 485.38 3.808 485.588 3.808L501.032 3.548C502.488 3.496 503.528 3.444 504.204 3.444C506.024 3.444 507.584 3.6 508.988 3.86C509.144 3.912 509.508 3.964 510.08 4.068Z" fill="url(#paint0_linear_64_144)"/>
</g>
<path d="M24.992 55.464C24.992 55.464 26.592 57.448 23.104 59.08C19.264 60.872 16.576 59.016 13.568 56.616C8.992 52.968 2.752 55.816 3.104 60.04C3.264 61.768 3.904 62.792 4.992 63.496C5.6 63.912 7.264 65.064 6.528 66.888C6.528 66.888 6.208 64.872 2.976 63.56C1.44 62.92 0.704 61.864 0.864 60.52C1.184 57.512 5.216 52.104 15.2 53.928C19.424 54.696 23.328 59.208 24.992 55.464ZM13.888 73.736C16.448 74.504 18.656 72.648 18.656 72.648C17.248 77.096 13.504 77.032 12.032 76.84C10.56 76.68 8.96 75.144 6.592 74.664C4.736 74.28 3.648 76.936 3.648 76.936C3.648 76.936 3.392 74.28 6.048 72.136C7.456 70.984 8.672 70.984 9.76 71.368C9.92 70.536 9.856 69.256 9.184 67.24C8.608 65.512 7.648 64.168 6.72 62.056C5.792 60.008 5.76 56.552 8.416 55.784C8.416 55.784 8.672 56.04 8.48 56.136C7.808 56.584 7.104 57.224 7.104 58.344C7.136 59.784 7.36 60.648 9.184 62.152C11.808 64.296 14.464 66.312 14.304 68.744C14.176 70.44 13.44 71.944 12.448 72.936C12.96 73.288 13.408 73.576 13.888 73.736ZM23.168 62.984C23.168 62.984 23.2 62.92 23.296 63.048C23.2 64.584 21.408 66.408 19.008 65.96C16.224 65.416 16.864 62.856 14.72 61.64C12.64 60.456 11.776 62.952 12.672 64.488C12.8 64.68 12.672 64.616 12.608 64.712C12.608 64.712 10.848 63.688 11.648 61.832C12.352 60.168 16.128 59.336 18.4 62.024C20 63.944 22.624 64.072 23.168 62.984ZM33.5688 56.072C36.2248 59.56 33.5368 61.736 33.5368 61.736C33.5368 61.736 31.8728 62.664 32.5128 63.688C32.5128 63.688 29.8888 63.592 30.9128 59.656C31.9688 55.656 30.5608 54.152 29.2168 54.952C27.6808 55.88 26.7528 58.952 28.8008 63.592C30.8488 68.2 32.4167 69.256 31.1688 72.296C30.0488 75.144 30.9768 76.296 33.1528 76.424C33.2488 76.424 33.1848 76.68 33.1848 76.712C33.1848 76.712 28.2888 76.776 26.3688 79.464C26.2728 79.592 26.1448 79.528 26.0807 79.464C26.0807 79.464 28.8328 72.616 25.9528 63.592C23.1047 54.568 30.7848 52.424 33.5688 56.072ZM36.737 57.768H36.609C36.609 57.416 36.257 57.192 35.425 56.264C34.593 55.368 35.425 54.44 35.969 54.28C36.545 54.12 38.209 53.832 39.393 54.248C40.545 54.664 40.897 56.584 39.233 56.84C37.537 57.064 37.313 57 36.737 57.768ZM43.297 61.192H43.265L43.073 61.128C43.777 59.176 41.057 57.992 39.201 58.952C38.017 59.56 37.665 59.912 37.185 60.008C42.753 60.808 44.161 64.424 42.785 68.136C41.601 71.4 34.945 76.232 40.289 76.424V76.744C33.601 76.872 36.321 72.104 38.113 68.552C39.393 66.088 38.945 61.672 35.681 60.04C35.681 60.04 35.809 60.008 36.033 59.976C38.657 59.208 38.849 56.872 41.377 56.744C44.321 56.616 44.129 60.232 43.297 61.192ZM55.4338 58.728C60.0738 59.016 62.6978 65.512 61.8018 70.376C60.9058 75.272 58.5058 75.88 57.3218 76.424C55.9778 77 51.2418 77.064 50.8258 73.544C50.3458 69.896 52.5218 68.872 53.0658 66.856C53.4498 65.512 53.4178 64.36 52.2978 63.368L54.4738 62.44C54.4738 62.44 55.2418 64.744 54.2818 66.696C53.2898 68.616 52.2338 70.856 53.5458 73.64C54.7298 76.104 56.4578 75.752 57.3858 74.024C58.4098 72.136 58.1858 68.2 56.8418 64.488C55.5298 60.808 53.8658 57.768 50.7618 61.512C48.5858 64.168 49.0978 70.76 49.3538 73.224C50.1218 75.944 50.4418 78.344 49.7058 81.544C48.6178 86.28 44.9698 88.232 42.6017 85.928C40.2017 83.624 42.1537 79.752 42.1537 79.752C42.4417 83.816 49.4818 81.512 48.5218 77.928C47.4978 74.152 44.6178 73.608 44.1058 70.632C43.4017 66.408 45.8978 65.96 46.7938 63.208C48.0098 59.496 45.2898 60.2 45.2898 60.2C45.6418 58.888 49.5138 57.672 49.9938 59.336C50.0898 59.688 49.9938 60.072 49.8658 60.424C49.5778 61.384 46.3138 63.88 48.3298 69.928C48.2658 69.448 48.2018 68.84 48.1698 68.104C47.7858 62.792 50.8258 58.408 55.4338 58.728ZM78.9108 75.528C79.0388 75.72 79.1667 75.912 79.2308 76.136C79.2948 76.36 79.2308 76.616 79.0388 76.744C78.8148 76.904 78.5268 76.808 78.2708 76.712C77.3748 76.488 76.4468 76.68 75.6148 77C73.0548 77.928 73.0868 75.144 73.0868 74.888C73.1188 74.632 73.6948 72.04 73.6948 72.04C73.3748 72.744 72.4468 74.536 70.6548 75.816C68.5748 77.352 65.4388 77.032 64.0948 75.208C61.3427 71.464 63.8068 68.008 65.7268 66.728C67.6788 65.448 69.4388 65.192 72.2868 63.272C75.1028 61.352 74.6228 59.88 73.9828 59.336C73.3108 58.792 71.4868 57.928 68.7668 60.072C66.0148 62.216 66.4308 64.68 66.4308 64.68L66.1748 64.84L64.1908 61.896C64.9588 60.328 72.1588 56.552 75.5828 59.048C77.9188 60.712 78.0788 63.944 77.9508 66.536C77.8868 68.072 77.6308 69.576 77.6308 71.048C77.6308 72.584 77.8868 74.088 78.9108 75.528ZM75.1988 65.576C75.2948 65.032 75.3588 64.488 75.3588 63.912C75.3908 63.016 75.3268 61.864 74.8148 61.064C76.6068 68.264 69.8548 62.824 66.0148 68.328C65.2788 69.352 64.7988 70.472 65.0868 72.264C65.3108 73.544 66.9108 74.12 68.0308 73.832C69.0548 73.544 69.7908 72.616 69.9508 71.56C70.0468 71.08 69.9828 70.6 70.0788 70.088C70.2068 69.16 70.8148 68.296 71.6468 67.816C72.1267 67.56 72.7028 67.432 73.2468 67.432C73.6308 67.432 74.0468 67.624 74.3668 67.56C74.4948 67.56 74.5908 67.496 74.6868 67.4C75.0068 67.08 75.1028 66.024 75.1988 65.576ZM79.4228 76.872C79.5188 76.968 79.5508 77.032 79.5508 77.032C79.5508 77.032 79.5188 76.968 79.4228 76.872ZM92.588 69.832C91.18 71.944 91.02 75.496 95.18 76.456C95.18 76.456 89.804 77.672 87.948 75.816C86.252 74.056 88.204 71.784 90.22 70.312C92.236 68.84 93.804 67.944 93.516 65.576C93.132 62.44 91.724 62.216 87.116 62.568C88.268 64.072 88.364 66.088 87.628 68.136C86.412 71.4 79.788 76.2 85.132 76.424L85.1 76.744C78.444 76.872 81.164 72.104 82.956 68.552C84.204 66.088 83.788 61.672 80.524 60.04C80.524 60.04 80.652 60.008 80.876 59.976C83.468 59.208 83.66 56.872 86.22 56.744C89.164 56.616 88.972 60.232 88.108 61.192L87.884 61.128C88.62 59.176 85.868 57.992 84.044 58.952C82.828 59.56 82.508 59.912 82.028 60.008C83.98 60.296 85.42 60.904 86.38 61.768C87.148 61.928 88.204 61.896 89.1 61C90.7 59.368 94.156 56.904 96.3 60.36C98.828 64.424 93.804 68.008 92.588 69.832ZM112.783 62.6C112.591 63.528 112.527 64.456 112.495 65.416C112.303 68.552 112.175 71.848 113.327 74.792C113.519 75.176 113.711 75.624 113.551 76.04C113.199 77.032 111.855 76.744 111.087 76.744C109.807 76.744 108.463 76.936 108.527 75.24C108.559 74.664 108.751 74.152 108.943 73.64C109.487 72.04 109.711 70.536 109.999 68.904C110.127 68.232 110.159 67.56 110.159 66.888C110.031 66.248 108.943 61.736 106.223 60.936C103.503 60.168 100.975 62.6 100.335 65.96C99.6628 69.352 101.551 72.968 101.807 73.992C102.607 77.224 106.991 74.824 104.175 70.376C101.871 66.792 105.359 63.24 107.471 65.352L107.055 66.344C107.055 66.344 104.975 64.808 104.303 66.344C103.471 68.36 105.743 70.216 107.343 71.176C108.847 72.104 109.391 75.688 105.039 76.584C100.655 77.48 101.967 74.984 99.2788 71.496C98.6708 70.696 97.1668 69.736 97.1988 67.336C97.2308 65.448 98.2228 62.536 100.239 61.096C106.063 56.936 109.263 61.64 110.223 64.552C110.223 64.2 110.255 63.88 110.287 63.528C110.511 61.032 109.903 58.248 109.039 55.944C108.911 55.656 108.815 55.368 108.815 55.08C108.847 54.888 108.943 54.728 109.135 54.632C109.903 54.184 111.791 54.536 112.399 54.536C113.039 54.536 113.807 54.344 114.063 54.92C114.543 55.944 114.159 57.608 113.871 58.632C113.551 59.944 113.039 61.224 112.783 62.6ZM126.773 61.992C128.437 61.736 130.389 62.024 130.389 63.944C130.389 68.456 130.133 72.36 126.101 75.016C122.965 77.032 117.141 77.896 115.989 74.12C115.573 72.776 116.213 69.96 115.797 68.232C115.317 66.344 113.845 62.76 116.149 60.328C118.805 57.512 122.101 57.736 123.637 60.264C124.373 61.48 125.813 62.152 126.773 61.992ZM123.957 73.48C129.781 72.136 130.165 67.624 127.413 65.896C125.685 64.808 122.293 67.56 121.749 64.04C121.589 62.984 121.845 61.064 121.461 60.424C120.821 59.368 119.221 59.272 117.717 61.128C115.157 64.296 118.709 65.48 119.477 66.952C120.661 69.256 118.165 74.824 123.957 73.48ZM156.427 73.448C156.555 74.088 156.235 75.304 155.435 76.296C154.187 77.8 152.075 74.76 147.595 76.392C144.363 77.576 142.315 75.144 142.027 72.776C141.899 71.464 142.219 68.936 144.619 67.368C146.795 65.928 146.827 64.776 145.611 62.344C144.427 59.88 147.403 57.416 151.371 57.864C155.307 58.312 157.259 63.08 156.011 65.96C154.763 68.872 152.203 70.28 150.571 69.832C149.131 69.48 149.323 67.72 149.323 67.72C149.323 67.72 149.547 67.528 149.643 67.752C149.995 68.456 150.699 69.992 151.659 68.008C153.035 65.256 152.939 61.544 150.699 59.496C147.947 57 147.979 59.272 148.523 61.416C149.035 63.592 150.507 66.632 148.267 68.008C146.347 69.224 146.187 68.552 144.651 69.8C141.419 72.456 144.651 76.104 147.723 73.96C150.123 72.264 153.355 71.08 154.091 73.672C154.731 75.976 155.947 73.864 155.883 73.16C155.883 73.16 156.363 73.064 156.427 73.448ZM169.901 69.832C168.493 71.944 168.333 75.496 172.493 76.456C172.493 76.456 167.117 77.672 165.26 75.816C163.565 74.056 165.517 71.784 167.533 70.312C169.549 68.84 171.117 67.944 170.829 65.576C170.445 62.44 169.037 62.216 164.429 62.568C165.581 64.072 165.677 66.088 164.941 68.136C163.725 71.4 157.101 76.2 162.445 76.424L162.413 76.744C155.757 76.872 158.477 72.104 160.269 68.552C161.516 66.088 161.101 61.672 157.837 60.04C157.837 60.04 157.965 60.008 158.189 59.976C160.781 59.208 160.973 56.872 163.533 56.744C166.477 56.616 166.285 60.232 165.421 61.192L165.197 61.128C165.933 59.176 163.181 57.992 161.357 58.952C160.141 59.56 159.821 59.912 159.341 60.008C161.293 60.296 162.733 60.904 163.693 61.768C164.461 61.928 165.517 61.896 166.413 61C168.013 59.368 171.469 56.904 173.613 60.36C176.141 64.424 171.117 68.008 169.901 69.832ZM200.158 63.208L198.238 64.456C199.006 59.144 194.686 57.544 191.422 59.432C188.158 61.32 188.286 66.632 192.03 71.784C194.238 74.76 196.126 74.984 197.15 74.792C199.07 74.28 197.598 73 196.254 70.088C194.845 67.08 197.886 65.512 197.886 65.512C197.534 67.784 199.55 69.416 199.838 71.752C200.158 74.312 197.726 75.784 197.726 75.784C196.638 76.584 194.59 77.256 191.902 76.36C188.19 75.144 185.085 70.44 186.334 65.256C187.582 60.072 191.966 56.936 195.966 58.056C200.318 59.272 200.158 63.208 200.158 63.208ZM213.71 61.992C215.374 61.736 217.326 62.024 217.326 63.944C217.326 68.456 217.07 72.36 213.038 75.016C209.902 77.032 204.078 77.896 202.926 74.12C202.51 72.776 203.15 69.96 202.734 68.232C202.254 66.344 200.782 62.76 203.086 60.328C205.742 57.512 209.038 57.736 210.574 60.264C211.31 61.48 212.75 62.152 213.71 61.992ZM210.894 73.48C216.718 72.136 217.102 67.624 214.35 65.896C212.622 64.808 209.23 67.56 208.686 64.04C208.526 62.984 208.782 61.064 208.398 60.424C207.758 59.368 206.158 59.272 204.654 61.128C202.094 64.296 205.646 65.48 206.414 66.952C207.598 69.256 205.102 74.824 210.894 73.48ZM227.1 56.072C229.756 59.56 227.068 61.736 227.068 61.736C227.068 61.736 225.404 62.664 226.044 63.688C226.044 63.688 223.42 63.592 224.444 59.656C225.5 55.656 224.092 54.152 222.748 54.952C221.212 55.88 220.284 58.952 222.332 63.592C224.38 68.2 225.948 69.256 224.7 72.296C223.58 75.144 224.508 76.296 226.684 76.424C226.78 76.424 226.716 76.68 226.716 76.712C226.716 76.712 221.82 76.776 219.9 79.464C219.804 79.592 219.676 79.528 219.612 79.464C219.612 79.464 222.364 72.616 219.484 63.592C216.636 54.568 224.316 52.424 227.1 56.072ZM240.741 61.992C242.405 61.736 244.357 62.024 244.357 63.944C244.357 68.456 244.101 72.36 240.069 75.016C236.933 77.032 231.109 77.896 229.957 74.12C229.541 72.776 230.181 69.96 229.765 68.232C229.285 66.344 227.813 62.76 230.117 60.328C232.773 57.512 236.069 57.736 237.605 60.264C238.341 61.48 239.781 62.152 240.741 61.992ZM237.925 73.48C243.749 72.136 244.133 67.624 241.381 65.896C239.653 64.808 236.261 67.56 235.717 64.04C235.557 62.984 235.813 61.064 235.429 60.424C234.789 59.368 233.189 59.272 231.685 61.128C229.125 64.296 232.677 65.48 233.445 66.952C234.629 69.256 232.133 74.824 237.925 73.48ZM253.896 58.248C256.872 58.12 261.096 61.256 258.568 65.832C257.288 67.944 255.304 67.816 254.536 69.256C253.96 70.376 254.184 71.496 255.336 71.72L255.304 71.88C253.672 71.624 253.416 70.216 254.152 69.064C255.272 67.368 255.464 61.448 254.024 60.264C251.944 58.568 248.872 60.04 250.088 61.352C250.088 61.352 250.088 61.352 250.088 61.384C252.36 62.952 252.776 65.512 251.816 68.136C250.6 71.4 243.976 76.232 249.32 76.424L249.288 76.744C242.632 76.872 245.352 72.104 247.144 68.552C248.391 66.088 247.976 61.672 244.712 60.04C244.712 60.04 245.096 59.944 245.672 59.944C246.344 60.008 246.984 60.136 247.528 60.264C250.696 59.72 250.024 58.44 253.896 58.248ZM272.302 73.448C272.43 74.088 272.11 75.304 271.31 76.296C270.062 77.8 267.95 74.76 263.47 76.392C260.238 77.576 258.19 75.144 257.902 72.776C257.774 71.464 258.094 68.936 260.494 67.368C262.67 65.928 262.702 64.776 261.486 62.344C260.302 59.88 263.278 57.416 267.246 57.864C271.182 58.312 273.134 63.08 271.886 65.96C270.638 68.872 268.078 70.28 266.446 69.832C265.006 69.48 265.198 67.72 265.198 67.72C265.198 67.72 265.422 67.528 265.518 67.752C265.87 68.456 266.574 69.992 267.534 68.008C268.91 65.256 268.814 61.544 266.574 59.496C263.822 57 263.854 59.272 264.398 61.416C264.91 63.592 266.382 66.632 264.142 68.008C262.222 69.224 262.062 68.552 260.526 69.8C257.294 72.456 260.526 76.104 263.598 73.96C265.998 72.264 269.23 71.08 269.966 73.672C270.606 75.976 271.822 73.864 271.758 73.16C271.758 73.16 272.238 73.064 272.302 73.448ZM285.737 66.664C288.809 68.456 288.713 71.848 287.625 73.48C286.505 75.08 284.361 77.608 280.361 76.424C277.289 75.528 276.489 74.824 277.001 72.296C277.513 69.8 276.489 69 275.593 69.192C274.505 69.48 275.593 71.272 275.593 71.272C275.593 71.272 274.313 71.496 273.993 70.312C273.769 69.352 274.249 68.168 275.369 68.136C278.089 68.04 277.769 70.888 280.105 74.28C282.121 77.192 285.897 75.624 285.321 72.296C284.553 67.912 278.601 70.6 275.177 66.344C272.553 63.112 275.081 59.208 278.313 58.664C281.033 58.184 282.537 60.392 284.297 62.76C286.025 65.064 288.265 64.776 287.721 62.216C287.337 60.392 284.329 60.488 284.265 61.192C284.265 61.192 284.329 59.944 285.609 59.112C286.889 58.28 288.489 60.488 288.681 61.864C288.969 64.168 286.409 66.824 282.505 65.064C281.001 64.392 280.649 63.368 280.617 61.448C280.553 58.856 275.529 58.952 276.521 62.856C277.545 66.76 282.633 64.872 285.737 66.664Z" fill="url(#paint1_linear_64_144)"/>
<defs>
<filter id="filter0_d_64_144" x="0.0166728" y="3.39209" width="517.951" height="42.8666" filterUnits="userSpaceOnUse" color-interpolation-filters="sRGB">
<feFlood flood-opacity="0" result="BackgroundImageFix"/>
<feColorMatrix in="SourceAlpha" type="matrix" values="0 0 0 0 0 0 0 0 0 0 0 0 0 0 0 0 0 0 127 0" result="hardAlpha"/>
<feOffset dy="2.58333"/>
<feGaussianBlur stdDeviation="1.29167"/>
<feComposite in2="hardAlpha" operator="out"/>
<feColorMatrix type="matrix" values="0 0 0 0 0 0 0 0 0 0 0 0 0 0 0 0 0 0 0.25 0"/>
<feBlend mode="normal" in2="BackgroundImageFix" result="effect1_dropShadow_64_144"/>
<feBlend mode="normal" in="SourceGraphic" in2="effect1_dropShadow_64_144" result="shape"/>
</filter>
<linearGradient id="paint0_linear_64_144" x1="0" y1="25.5" x2="535" y2="25.5" gradientUnits="userSpaceOnUse">
<stop stop-color="#FF00F6"/>
<stop offset="0.505" stop-color="#82D8E0"/>
<stop offset="1" stop-color="#5A42BB"/>
</linearGradient>
<linearGradient id="paint1_linear_64_144" x1="0" y1="70" x2="535" y2="70" gradientUnits="userSpaceOnUse">
<stop stop-color="#F35432"/>
<stop offset="0.06" stop-color="#248470"/>
<stop offset="0.14" stop-color="#7059BF"/>
<stop offset="0.22" stop-color="#E84E8C"/>
<stop offset="0.305" stop-color="#E9BA24"/>
<stop offset="0.39" stop-color="#3076ED"/>
<stop offset="1" stop-color="white"/>
</linearGradient>
</defs>
</svg>
